<svg width="299" height="82" viewBox="0 0 299 82" fill="none" xmlns="http://www.w3.org/2000/svg">
<path d="M26.9716 21.1307C26.8352 19.7557 26.25 18.6875 25.2159 17.9261C24.1818 17.1648 22.7784 16.7841 21.0057 16.7841C19.8011 16.7841 18.7841 16.9545 17.9545 17.2955C17.125 17.625 16.4886 18.0852 16.0455 18.6761C15.6136 19.267 15.3977 19.9375 15.3977 20.6875C15.375 21.3125 15.5057 21.858 15.7898 22.3239C16.0852 22.7898 16.4886 23.1932 17 23.5341C17.5114 23.8636 18.1023 24.1534 18.7727 24.4034C19.4432 24.642 20.1591 24.8466 20.9205 25.017L24.0568 25.767C25.5795 26.108 26.9773 26.5625 28.25 27.1307C29.5227 27.6989 30.625 28.3977 31.5568 29.2273C32.4886 30.0568 33.2102 31.0341 33.7216 32.1591C34.2443 33.2841 34.5114 34.5739 34.5227 36.0284C34.5114 38.1648 33.9659 40.017 32.8864 41.5852C31.8182 43.142 30.2727 44.3523 28.25 45.2159C26.2386 46.0682 23.8125 46.4943 20.9716 46.4943C18.1534 46.4943 15.6989 46.0625 13.608 45.1989C11.5284 44.3352 9.90341 43.0568 8.73295 41.3636C7.57386 39.6591 6.96591 37.5511 6.90909 35.0398H14.0511C14.1307 36.2102 14.4659 37.1875 15.0568 37.9716C15.6591 38.7443 16.4602 39.3295 17.4602 39.7273C18.4716 40.1136 19.6136 40.3068 20.8864 40.3068C22.1364 40.3068 23.2216 40.125 24.142 39.7614C25.0739 39.3977 25.7955 38.892 26.3068 38.2443C26.8182 37.5966 27.0739 36.8523 27.0739 36.0114C27.0739 35.2273 26.8409 34.5682 26.375 34.0341C25.9205 33.5 25.25 33.0455 24.3636 32.6705C23.4886 32.2955 22.4148 31.9545 21.142 31.6477L17.3409 30.6932C14.3977 29.9773 12.0739 28.858 10.3693 27.3352C8.66477 25.8125 7.81818 23.7614 7.82955 21.1818C7.81818 19.0682 8.38068 17.2216 9.51705 15.642C10.6648 14.0625 12.2386 12.8295 14.2386 11.9432C16.2386 11.0568 18.5114 10.6136 21.0568 10.6136C23.6477 10.6136 25.9091 11.0568 27.8409 11.9432C29.7841 12.8295 31.2955 14.0625 32.375 15.642C33.4545 17.2216 34.0114 19.0511 34.0455 21.1307H26.9716ZM53.277 19.8182V25.2727H37.5099V19.8182H53.277ZM41.0895 13.5455H48.3509V37.9545C48.3509 38.625 48.4531 39.1477 48.6577 39.5227C48.8622 39.8864 49.1463 40.142 49.5099 40.2898C49.8849 40.4375 50.3168 40.5114 50.8054 40.5114C51.1463 40.5114 51.4872 40.483 51.8281 40.4261C52.169 40.358 52.4304 40.3068 52.6122 40.2727L53.7543 45.6761C53.3906 45.7898 52.8793 45.9205 52.2202 46.0682C51.5611 46.2273 50.7599 46.3239 49.8168 46.358C48.0668 46.4261 46.5327 46.1932 45.2145 45.6591C43.9077 45.125 42.8906 44.2955 42.1634 43.1705C41.4361 42.0455 41.0781 40.625 41.0895 38.9091V13.5455ZM69.6577 46.5114C66.9645 46.5114 64.6463 45.9659 62.7031 44.875C60.7713 43.7727 59.2827 42.2159 58.2372 40.2045C57.1918 38.1818 56.669 35.7898 56.669 33.0284C56.669 30.3352 57.1918 27.9716 58.2372 25.9375C59.2827 23.9034 60.7543 22.3182 62.652 21.1818C64.5611 20.0455 66.7997 19.4773 69.3679 19.4773C71.0952 19.4773 72.7031 19.7557 74.1918 20.3125C75.6918 20.858 76.9986 21.6818 78.1122 22.7841C79.2372 23.8864 80.1122 25.2727 80.7372 26.9432C81.3622 28.6023 81.6747 30.5455 81.6747 32.7727V34.767H59.5668V30.267H74.8395C74.8395 29.2216 74.6122 28.2955 74.1577 27.4886C73.7031 26.6818 73.0724 26.0511 72.2656 25.5966C71.4702 25.1307 70.544 24.8977 69.4872 24.8977C68.3849 24.8977 67.4077 25.1534 66.5554 25.6648C65.7145 26.1648 65.0554 26.8409 64.5781 27.6932C64.1009 28.5341 63.8565 29.4716 63.8452 30.5057V34.7841C63.8452 36.0795 64.0838 37.1989 64.5611 38.142C65.0497 39.0852 65.7372 39.8125 66.6236 40.3239C67.5099 40.8352 68.5611 41.0909 69.777 41.0909C70.5838 41.0909 71.3224 40.9773 71.9929 40.75C72.6634 40.5227 73.2372 40.1818 73.7145 39.7273C74.1918 39.2727 74.5554 38.7159 74.8054 38.0568L81.5213 38.5C81.1804 40.1136 80.4815 41.5227 79.4247 42.7273C78.3793 43.9205 77.027 44.8523 75.3679 45.5227C73.7202 46.1818 71.8168 46.5114 69.6577 46.5114ZM93.8793 46.4943C92.2088 46.4943 90.7202 46.2045 89.4134 45.625C88.1065 45.0341 87.0724 44.1648 86.3111 43.017C85.5611 41.858 85.1861 40.4148 85.1861 38.6875C85.1861 37.233 85.4531 36.0114 85.9872 35.0227C86.5213 34.0341 87.2486 33.2386 88.169 32.6364C89.0895 32.0341 90.1349 31.5795 91.3054 31.2727C92.4872 30.9659 93.7259 30.75 95.0213 30.625C96.544 30.4659 97.7713 30.3182 98.7031 30.1818C99.6349 30.0341 100.311 29.8182 100.732 29.5341C101.152 29.25 101.362 28.8295 101.362 28.2727V28.1705C101.362 27.0909 101.021 26.2557 100.339 25.6648C99.669 25.0739 98.7145 24.7784 97.4759 24.7784C96.169 24.7784 95.1293 25.0682 94.3565 25.6477C93.5838 26.2159 93.0724 26.9318 92.8224 27.7955L86.1065 27.25C86.4474 25.6591 87.1179 24.2841 88.1179 23.125C89.1179 21.9545 90.4077 21.0568 91.9872 20.4318C93.5781 19.7955 95.419 19.4773 97.5099 19.4773C98.9645 19.4773 100.357 19.6477 101.686 19.9886C103.027 20.3295 104.214 20.858 105.249 21.5739C106.294 22.2898 107.118 23.2102 107.72 24.3352C108.322 25.4489 108.624 26.7841 108.624 28.3409V46H101.737V42.3693H101.533C101.112 43.1875 100.55 43.9091 99.8452 44.5341C99.1406 45.1477 98.294 45.6307 97.3054 45.983C96.3168 46.3239 95.1747 46.4943 93.8793 46.4943ZM95.9588 41.483C97.027 41.483 97.9702 41.2727 98.7884 40.8523C99.6065 40.4205 100.249 39.8409 100.714 39.1136C101.18 38.3864 101.413 37.5625 101.413 36.642V33.8636C101.186 34.0114 100.874 34.1477 100.476 34.2727C100.089 34.3864 99.652 34.4943 99.1634 34.5966C98.6747 34.6875 98.1861 34.7727 97.6974 34.8523C97.2088 34.9205 96.7656 34.983 96.3679 35.0398C95.5156 35.1648 94.7713 35.3636 94.1349 35.6364C93.4986 35.9091 93.0043 36.2784 92.652 36.7443C92.2997 37.1989 92.1236 37.767 92.1236 38.4489C92.1236 39.4375 92.4815 40.1932 93.1974 40.7159C93.9247 41.2273 94.8452 41.483 95.9588 41.483ZM114.257 46V19.8182H121.178V24.4375H121.484C122.03 22.9034 122.939 21.6932 124.212 20.8068C125.484 19.9205 127.007 19.4773 128.78 19.4773C130.575 19.4773 132.104 19.9261 133.365 20.8239C134.626 21.7102 135.467 22.9148 135.888 24.4375H136.161C136.695 22.9375 137.661 21.7386 139.058 20.8409C140.467 19.9318 142.132 19.4773 144.053 19.4773C146.496 19.4773 148.479 20.2557 150.001 21.8125C151.536 23.358 152.303 25.5511 152.303 28.392V46H145.058V29.8239C145.058 28.3693 144.672 27.2784 143.899 26.5511C143.126 25.8239 142.161 25.4602 141.001 25.4602C139.683 25.4602 138.655 25.8807 137.916 26.7216C137.178 27.5511 136.808 28.6477 136.808 30.0114V46H129.768V29.6705C129.768 28.3864 129.399 27.3636 128.661 26.6023C127.933 25.8409 126.973 25.4602 125.78 25.4602C124.973 25.4602 124.246 25.6648 123.598 26.0739C122.962 26.4716 122.456 27.0341 122.081 27.7614C121.706 28.4773 121.518 29.3182 121.518 30.2841V46H114.257ZM200.085 23.3125H192.619C192.483 22.3466 192.205 21.4886 191.784 20.7386C191.364 19.9773 190.824 19.3295 190.165 18.7955C189.506 18.2614 188.744 17.8523 187.881 17.5682C187.028 17.2841 186.102 17.142 185.102 17.142C183.295 17.142 181.722 17.5909 180.381 18.4886C179.04 19.375 178 20.6705 177.261 22.375C176.523 24.0682 176.153 26.125 176.153 28.5455C176.153 31.0341 176.523 33.125 177.261 34.8182C178.011 36.5114 179.057 37.7898 180.398 38.6534C181.739 39.517 183.29 39.9489 185.051 39.9489C186.04 39.9489 186.955 39.8182 187.795 39.5568C188.648 39.2955 189.403 38.9148 190.062 38.4148C190.722 37.9034 191.267 37.2841 191.699 36.5568C192.142 35.8295 192.449 35 192.619 34.0682L200.085 34.1023C199.892 35.7045 199.409 37.25 198.636 38.7386C197.875 40.2159 196.847 41.5398 195.551 42.7102C194.267 43.8693 192.733 44.7898 190.949 45.4716C189.176 46.142 187.17 46.4773 184.932 46.4773C181.818 46.4773 179.034 45.7727 176.58 44.3636C174.136 42.9545 172.205 40.9148 170.784 38.2443C169.375 35.5739 168.67 32.3409 168.67 28.5455C168.67 24.7386 169.386 21.5 170.818 18.8295C172.25 16.1591 174.193 14.125 176.648 12.7273C179.102 11.3182 181.864 10.6136 184.932 10.6136C186.955 10.6136 188.83 10.8977 190.557 11.4659C192.295 12.0341 193.835 12.8636 195.176 13.9545C196.517 15.0341 197.608 16.358 198.449 17.9261C199.301 19.4943 199.847 21.2898 200.085 23.3125ZM212.707 46.4943C211.037 46.4943 209.548 46.2045 208.241 45.625C206.935 45.0341 205.901 44.1648 205.139 43.017C204.389 41.858 204.014 40.4148 204.014 38.6875C204.014 37.233 204.281 36.0114 204.815 35.0227C205.349 34.0341 206.077 33.2386 206.997 32.6364C207.918 32.0341 208.963 31.5795 210.134 31.2727C211.315 30.9659 212.554 30.75 213.849 30.625C215.372 30.4659 216.599 30.3182 217.531 30.1818C218.463 30.0341 219.139 29.8182 219.56 29.5341C219.98 29.25 220.19 28.8295 220.19 28.2727V28.1705C220.19 27.0909 219.849 26.2557 219.168 25.6648C218.497 25.0739 217.543 24.7784 216.304 24.7784C214.997 24.7784 213.957 25.0682 213.185 25.6477C212.412 26.2159 211.901 26.9318 211.651 27.7955L204.935 27.25C205.276 25.6591 205.946 24.2841 206.946 23.125C207.946 21.9545 209.236 21.0568 210.815 20.4318C212.406 19.7955 214.247 19.4773 216.338 19.4773C217.793 19.4773 219.185 19.6477 220.514 19.9886C221.855 20.3295 223.043 20.858 224.077 21.5739C225.122 22.2898 225.946 23.2102 226.548 24.3352C227.151 25.4489 227.452 26.7841 227.452 28.3409V46H220.565V42.3693H220.361C219.94 43.1875 219.378 43.9091 218.673 44.5341C217.969 45.1477 217.122 45.6307 216.134 45.983C215.145 46.3239 214.003 46.4943 212.707 46.4943ZM214.787 41.483C215.855 41.483 216.798 41.2727 217.616 40.8523C218.435 40.4205 219.077 39.8409 219.543 39.1136C220.009 38.3864 220.241 37.5625 220.241 36.642V33.8636C220.014 34.0114 219.702 34.1477 219.304 34.2727C218.918 34.3864 218.48 34.4943 217.991 34.5966C217.503 34.6875 217.014 34.7727 216.526 34.8523C216.037 34.9205 215.594 34.983 215.196 35.0398C214.344 35.1648 213.599 35.3636 212.963 35.6364C212.327 35.9091 211.832 36.2784 211.48 36.7443C211.128 37.1989 210.952 37.767 210.952 38.4489C210.952 39.4375 211.31 40.1932 212.026 40.7159C212.753 41.2273 213.673 41.483 214.787 41.483ZM233.085 46V19.8182H240.125V24.3864H240.398C240.875 22.7614 241.676 21.5341 242.801 20.7045C243.926 19.8636 245.222 19.4432 246.688 19.4432C247.051 19.4432 247.443 19.4659 247.864 19.5114C248.284 19.5568 248.653 19.6193 248.972 19.6989V26.142C248.631 26.0398 248.159 25.9489 247.557 25.8693C246.955 25.7898 246.403 25.75 245.903 25.75C244.835 25.75 243.881 25.983 243.04 26.4489C242.21 26.9034 241.551 27.5398 241.062 28.358C240.585 29.1761 240.347 30.1193 240.347 31.1875V46H233.085ZM261.155 46.4261C259.166 46.4261 257.365 45.9148 255.751 44.892C254.149 43.858 252.876 42.3409 251.933 40.3409C251.001 38.3295 250.536 35.8636 250.536 32.9432C250.536 29.9432 251.018 27.4489 251.984 25.4602C252.95 23.4602 254.234 21.9659 255.837 20.9773C257.45 19.9773 259.217 19.4773 261.138 19.4773C262.604 19.4773 263.825 19.7273 264.803 20.2273C265.791 20.7159 266.587 21.3295 267.189 22.0682C267.803 22.7955 268.268 23.5114 268.587 24.2159H268.808V11.0909H276.053V46H268.893V41.8068H268.587C268.246 42.5341 267.763 43.2557 267.138 43.9716C266.524 44.6761 265.723 45.2614 264.734 45.7273C263.757 46.1932 262.564 46.4261 261.155 46.4261ZM263.456 40.6477C264.626 40.6477 265.615 40.3295 266.422 39.6932C267.24 39.0455 267.865 38.142 268.297 36.983C268.74 35.8239 268.962 34.4659 268.962 32.9091C268.962 31.3523 268.746 30 268.314 28.8523C267.882 27.7045 267.257 26.8182 266.439 26.1932C265.621 25.5682 264.626 25.2557 263.456 25.2557C262.263 25.2557 261.257 25.5795 260.439 26.2273C259.621 26.875 259.001 27.7727 258.581 28.9205C258.161 30.0682 257.95 31.3977 257.95 32.9091C257.95 34.4318 258.161 35.7784 258.581 36.9489C259.013 38.108 259.632 39.017 260.439 39.6761C261.257 40.3239 262.263 40.6477 263.456 40.6477Z" fill="url(#paint0_linear_2_14)"/>
<path d="M54.1974 64C54.1179 63.7102 54.0014 63.4389 53.848 63.1861C53.6946 62.9304 53.5043 62.7074 53.277 62.517C53.0526 62.3239 52.7926 62.1733 52.4972 62.0653C52.2045 61.9574 51.8778 61.9034 51.517 61.9034C50.9489 61.9034 50.4403 62.0511 49.9915 62.3466C49.5426 62.642 49.1875 63.0682 48.9261 63.625C48.6676 64.1818 48.5384 64.8523 48.5384 65.6364C48.5384 66.4176 48.669 67.0866 48.9304 67.6435C49.1918 68.2003 49.5497 68.6278 50.0043 68.9261C50.4616 69.2216 50.9844 69.3693 51.5724 69.3693C52.1094 69.3693 52.5838 69.25 52.9957 69.0114C53.4077 68.7727 53.7287 68.4318 53.9588 67.9886C54.1918 67.5455 54.3054 67.0185 54.2997 66.4077L54.5554 66.4886H51.7599V65.7727H55.0753V66.4886C55.0753 67.233 54.9247 67.8764 54.6236 68.419C54.3224 68.9616 53.9091 69.3807 53.3835 69.6761C52.858 69.9716 52.2543 70.1193 51.5724 70.1193C50.8111 70.1193 50.1449 69.9361 49.5739 69.5696C49.0028 69.2003 48.5582 68.6804 48.2401 68.0099C47.9247 67.3366 47.767 66.5455 47.767 65.6364C47.767 64.9517 47.858 64.3338 48.0398 63.7827C48.2216 63.2315 48.4787 62.7599 48.8111 62.3679C49.1463 61.9759 49.5426 61.6761 50 61.4688C50.4574 61.2585 50.9631 61.1534 51.517 61.1534C51.9943 61.1534 52.4304 61.2287 52.8253 61.3793C53.223 61.5298 53.5724 61.7372 53.8736 62.0014C54.1776 62.2628 54.4261 62.5653 54.6193 62.9091C54.8153 63.25 54.9474 63.6136 55.0156 64H54.1974ZM59.5423 70.1364C58.9315 70.1364 58.4031 69.9943 57.957 69.7102C57.511 69.4233 57.1658 69.027 56.9215 68.5213C56.68 68.0128 56.5593 67.4276 56.5593 66.7656C56.5593 66.1065 56.68 65.5213 56.9215 65.0099C57.1658 64.4957 57.5025 64.0937 57.9315 63.804C58.3633 63.5114 58.8619 63.3651 59.4272 63.3651C59.7823 63.3651 60.1246 63.4304 60.4542 63.5611C60.7837 63.6889 61.0792 63.8864 61.3406 64.1534C61.6048 64.4176 61.8136 64.7514 61.967 65.1548C62.1204 65.5554 62.1971 66.0298 62.1971 66.5781V66.9531H57.0835V66.2841H61.4215C61.4215 65.8636 61.3363 65.4858 61.1658 65.1506C60.9982 64.8125 60.7638 64.5455 60.4627 64.3494C60.1644 64.1534 59.8192 64.0554 59.4272 64.0554C59.0124 64.0554 58.6474 64.1662 58.332 64.3878C58.0167 64.6094 57.7695 64.902 57.5906 65.2656C57.4144 65.6293 57.3249 66.027 57.3221 66.4588V66.8594C57.3221 67.3793 57.4116 67.8338 57.5906 68.223C57.7724 68.6094 58.0295 68.9091 58.3619 69.1222C58.6942 69.3352 59.0877 69.4418 59.5423 69.4418C59.8519 69.4418 60.1232 69.3935 60.3562 69.2969C60.592 69.2003 60.7894 69.071 60.9485 68.9091C61.1104 68.7443 61.2326 68.5639 61.315 68.3679L62.0352 68.6023C61.9357 68.8778 61.7724 69.1321 61.5451 69.3651C61.3207 69.598 61.0394 69.7855 60.7013 69.9276C60.3661 70.0668 59.9798 70.1364 59.5423 70.1364ZM64.6271 65.9091V70H63.8686V63.4545H64.6058V64.4815H64.674C64.8274 64.1463 65.0661 63.8778 65.3899 63.6761C65.7166 63.4716 66.12 63.3693 66.6001 63.3693C67.0405 63.3693 67.4268 63.4616 67.7592 63.6463C68.0945 63.8281 68.3544 64.0966 68.5391 64.4517C68.7266 64.8068 68.8203 65.2429 68.8203 65.7599V70H68.0618V65.8068C68.0618 65.2699 67.9112 64.8452 67.6101 64.5327C67.3118 64.2202 66.9112 64.0639 66.4084 64.0639C66.0646 64.0639 65.7592 64.1378 65.4922 64.2855C65.2251 64.4332 65.0135 64.6463 64.8572 64.9247C64.7038 65.2003 64.6271 65.5284 64.6271 65.9091ZM73.4641 70.1364C72.8533 70.1364 72.3249 69.9943 71.8789 69.7102C71.4329 69.4233 71.0877 69.027 70.8434 68.5213C70.6019 68.0128 70.4812 67.4276 70.4812 66.7656C70.4812 66.1065 70.6019 65.5213 70.8434 65.0099C71.0877 64.4957 71.4244 64.0937 71.8533 63.804C72.2852 63.5114 72.7837 63.3651 73.3491 63.3651C73.7042 63.3651 74.0465 63.4304 74.3761 63.5611C74.7056 63.6889 75.0011 63.8864 75.2624 64.1534C75.5266 64.4176 75.7354 64.7514 75.8888 65.1548C76.0423 65.5554 76.119 66.0298 76.119 66.5781V66.9531H71.0053V66.2841H75.3434C75.3434 65.8636 75.2582 65.4858 75.0877 65.1506C74.9201 64.8125 74.6857 64.5455 74.3846 64.3494C74.0863 64.1534 73.7411 64.0554 73.3491 64.0554C72.9343 64.0554 72.5692 64.1662 72.2539 64.3878C71.9386 64.6094 71.6914 64.902 71.5124 65.2656C71.3363 65.6293 71.2468 66.027 71.244 66.4588V66.8594C71.244 67.3793 71.3335 67.8338 71.5124 68.223C71.6942 68.6094 71.9513 68.9091 72.2837 69.1222C72.6161 69.3352 73.0096 69.4418 73.4641 69.4418C73.7738 69.4418 74.0451 69.3935 74.2781 69.2969C74.5138 69.2003 74.7113 69.071 74.8704 68.9091C75.0323 68.7443 75.1545 68.5639 75.2369 68.3679L75.957 68.6023C75.8576 68.8778 75.6942 69.1321 75.467 69.3651C75.2425 69.598 74.9613 69.7855 74.6232 69.9276C74.288 70.0668 73.9016 70.1364 73.4641 70.1364ZM77.7905 70V63.4545H78.5277V64.4602H78.5831C78.7138 64.1307 78.9411 63.8651 79.2649 63.6634C79.5916 63.4588 79.9609 63.3565 80.3729 63.3565C80.4354 63.3565 80.505 63.358 80.5817 63.3608C80.6584 63.3636 80.7223 63.3665 80.7734 63.3693V64.1406C80.7393 64.1349 80.6797 64.1264 80.5945 64.1151C80.5092 64.1037 80.4169 64.098 80.3175 64.098C79.9766 64.098 79.6726 64.1705 79.4055 64.3153C79.1413 64.4574 78.9325 64.6548 78.7791 64.9077C78.6257 65.1605 78.549 65.4489 78.549 65.7727V70H77.7905ZM83.896 70.1491C83.5011 70.1491 83.1403 70.0724 82.8136 69.919C82.4869 69.7628 82.2269 69.5384 82.0337 69.2457C81.8406 68.9503 81.744 68.5923 81.744 68.1719C81.744 67.848 81.805 67.5753 81.9272 67.3537C82.0494 67.1321 82.2227 66.9503 82.4471 66.8082C82.6715 66.6662 82.9371 66.554 83.244 66.4716C83.5508 66.3892 83.8888 66.3253 84.2582 66.2798C84.6246 66.2344 84.9343 66.1946 85.1871 66.1605C85.4428 66.1264 85.6374 66.0724 85.771 65.9986C85.9045 65.9247 85.9712 65.8054 85.9712 65.6406V65.4872C85.9712 65.0412 85.8377 64.6903 85.5707 64.4347C85.3065 64.1761 84.9258 64.0469 84.4286 64.0469C83.957 64.0469 83.5721 64.1506 83.2738 64.358C82.9783 64.5653 82.771 64.8097 82.6516 65.0909L81.9315 64.831C82.0792 64.473 82.2837 64.1875 82.5451 63.9744C82.8065 63.7585 83.0991 63.6037 83.4229 63.5099C83.7468 63.4134 84.0749 63.3651 84.4073 63.3651C84.6573 63.3651 84.9173 63.3977 85.1871 63.4631C85.4599 63.5284 85.7127 63.642 85.9457 63.804C86.1786 63.9631 86.3675 64.1861 86.5124 64.473C86.6573 64.7571 86.7298 65.1179 86.7298 65.5554V70H85.9712V68.9645H85.9244C85.8335 69.1577 85.6985 69.3452 85.5195 69.527C85.3406 69.7088 85.1161 69.858 84.8462 69.9744C84.5763 70.0909 84.2596 70.1491 83.896 70.1491ZM83.9982 69.4545C84.4016 69.4545 84.7511 69.3651 85.0465 69.1861C85.342 69.0071 85.5692 68.7699 85.7283 68.4744C85.8903 68.1761 85.9712 67.848 85.9712 67.4901V66.544C85.9144 66.598 85.8192 66.6463 85.6857 66.6889C85.555 66.7315 85.4031 66.7699 85.2298 66.804C85.0593 66.8352 84.8888 66.8622 84.7184 66.8849C84.5479 66.9077 84.3945 66.9276 84.2582 66.9446C83.8888 66.9901 83.5735 67.0611 83.3121 67.1577C83.0508 67.2543 82.8505 67.3878 82.7113 67.5582C82.5721 67.7259 82.5025 67.9418 82.5025 68.206C82.5025 68.6037 82.6445 68.9119 82.9286 69.1307C83.2127 69.3466 83.5692 69.4545 83.9982 69.4545ZM91.3256 63.4545V64.1151H88.2021V63.4545H91.3256ZM89.1779 61.8864H89.9407V68.2912C89.9407 68.5639 89.9876 68.7784 90.0813 68.9347C90.1751 69.0881 90.2972 69.1974 90.4478 69.2628C90.5984 69.3253 90.7589 69.3565 90.9293 69.3565C91.0288 69.3565 91.114 69.3509 91.185 69.3395C91.256 69.3253 91.3185 69.3111 91.3725 69.2969L91.5344 69.983C91.4606 70.0114 91.3697 70.0369 91.2617 70.0597C91.1538 70.0852 91.0202 70.098 90.8612 70.098C90.5827 70.098 90.3143 70.0369 90.0558 69.9148C89.8001 69.7926 89.5898 69.6108 89.4251 69.3693C89.2603 69.1278 89.1779 68.8281 89.1779 68.4702V61.8864ZM95.6243 70.1364C95.0135 70.1364 94.4851 69.9943 94.0391 69.7102C93.593 69.4233 93.2479 69.027 93.0036 68.5213C92.7621 68.0128 92.6413 67.4276 92.6413 66.7656C92.6413 66.1065 92.7621 65.5213 93.0036 65.0099C93.2479 64.4957 93.5845 64.0937 94.0135 63.804C94.4453 63.5114 94.9439 63.3651 95.5092 63.3651C95.8643 63.3651 96.2067 63.4304 96.5362 63.5611C96.8658 63.6889 97.1612 63.8864 97.4226 64.1534C97.6868 64.4176 97.8956 64.7514 98.049 65.1548C98.2024 65.5554 98.2791 66.0298 98.2791 66.5781V66.9531H93.1655V66.2841H97.5036C97.5036 65.8636 97.4183 65.4858 97.2479 65.1506C97.0803 64.8125 96.8459 64.5455 96.5447 64.3494C96.2464 64.1534 95.9013 64.0554 95.5092 64.0554C95.0945 64.0554 94.7294 64.1662 94.4141 64.3878C94.0987 64.6094 93.8516 64.902 93.6726 65.2656C93.4964 65.6293 93.407 66.027 93.4041 66.4588V66.8594C93.4041 67.3793 93.4936 67.8338 93.6726 68.223C93.8544 68.6094 94.1115 68.9091 94.4439 69.1222C94.7763 69.3352 95.1697 69.4418 95.6243 69.4418C95.9339 69.4418 96.2053 69.3935 96.4382 69.2969C96.674 69.2003 96.8714 69.071 97.0305 68.9091C97.1925 68.7443 97.3146 68.5639 97.397 68.3679L98.1172 68.6023C98.0178 68.8778 97.8544 69.1321 97.6271 69.3651C97.4027 69.598 97.1214 69.7855 96.7834 69.9276C96.4482 70.0668 96.0618 70.1364 95.6243 70.1364ZM102.665 61.2727H103.586L106.172 65.4148H106.249L108.836 61.2727H109.756L106.607 66.2202V70H105.814V66.2202L102.665 61.2727ZM112.713 70.1364C112.148 70.1364 111.648 69.9929 111.213 69.706C110.782 69.419 110.444 69.0227 110.199 68.517C109.955 68.0085 109.833 67.4219 109.833 66.7571C109.833 66.0866 109.955 65.4972 110.199 64.9886C110.444 64.4773 110.782 64.0795 111.213 63.7955C111.648 63.5085 112.148 63.3651 112.713 63.3651C113.279 63.3651 113.777 63.5085 114.209 63.7955C114.641 64.0824 114.979 64.4801 115.223 64.9886C115.471 65.4972 115.594 66.0866 115.594 66.7571C115.594 67.4219 115.472 68.0085 115.228 68.517C114.983 69.0227 114.644 69.419 114.209 69.706C113.777 69.9929 113.279 70.1364 112.713 70.1364ZM112.713 69.4418C113.168 69.4418 113.553 69.3196 113.868 69.0753C114.184 68.831 114.422 68.5057 114.584 68.0994C114.749 67.6932 114.831 67.2457 114.831 66.7571C114.831 66.2685 114.749 65.8196 114.584 65.4105C114.422 65.0014 114.184 64.6733 113.868 64.4261C113.553 64.179 113.168 64.0554 112.713 64.0554C112.262 64.0554 111.877 64.179 111.559 64.4261C111.243 64.6733 111.003 65.0014 110.838 65.4105C110.676 65.8196 110.596 66.2685 110.596 66.7571C110.596 67.2457 110.676 67.6932 110.838 68.0994C111.003 68.5057 111.243 68.831 111.559 69.0753C111.874 69.3196 112.259 69.4418 112.713 69.4418ZM121.418 67.4986V63.4545H122.177V70H121.418V68.9134H121.359C121.205 69.2486 120.962 69.5284 120.63 69.7528C120.298 69.9744 119.891 70.0852 119.411 70.0852C118.994 70.0852 118.623 69.9943 118.299 69.8125C117.975 69.6278 117.721 69.358 117.536 69.0028C117.352 68.6477 117.259 68.2116 117.259 67.6946V63.4545H118.018V67.6477C118.018 68.1591 118.168 68.571 118.469 68.8835C118.771 69.1932 119.157 69.348 119.629 69.348C119.924 69.348 120.208 69.277 120.481 69.1349C120.754 68.9929 120.978 68.7855 121.154 68.5128C121.33 68.2372 121.418 67.8991 121.418 67.4986ZM124.185 70V63.4545H124.922V64.4602H124.978C125.108 64.1307 125.336 63.8651 125.659 63.6634C125.986 63.4588 126.355 63.3565 126.767 63.3565C126.83 63.3565 126.9 63.358 126.976 63.3608C127.053 63.3636 127.117 63.3665 127.168 63.3693V64.1406C127.134 64.1349 127.074 64.1264 126.989 64.1151C126.904 64.1037 126.811 64.098 126.712 64.098C126.371 64.098 126.067 64.1705 125.8 64.3153C125.536 64.4574 125.327 64.6548 125.174 64.9077C125.02 65.1605 124.944 65.4489 124.944 65.7727V70H124.185ZM136.734 63.4545C136.685 62.9687 136.471 62.5824 136.09 62.2955C135.71 62.0085 135.231 61.8651 134.654 61.8651C134.248 61.8651 133.89 61.9347 133.58 62.0739C133.273 62.2131 133.032 62.4062 132.856 62.6534C132.683 62.8977 132.596 63.1761 132.596 63.4886C132.596 63.7188 132.646 63.9205 132.745 64.0938C132.844 64.267 132.978 64.4162 133.146 64.5412C133.316 64.6634 133.504 64.7685 133.708 64.8565C133.915 64.9446 134.124 65.0185 134.335 65.0781L135.255 65.3423C135.533 65.419 135.812 65.517 136.09 65.6364C136.369 65.7557 136.623 65.9062 136.853 66.0881C137.086 66.267 137.272 66.4872 137.411 66.7486C137.553 67.0071 137.624 67.3182 137.624 67.6818C137.624 68.1477 137.504 68.5668 137.262 68.9389C137.021 69.3111 136.674 69.6065 136.222 69.8253C135.771 70.0412 135.229 70.1491 134.599 70.1491C134.005 70.1491 133.489 70.0511 133.052 69.8551C132.614 69.6562 132.271 69.3821 132.021 69.0327C131.771 68.6832 131.63 68.2784 131.599 67.8182H132.417C132.445 68.1619 132.559 68.4531 132.758 68.6918C132.957 68.9304 133.215 69.1122 133.533 69.2372C133.852 69.3594 134.207 69.4205 134.599 69.4205C135.033 69.4205 135.42 69.348 135.758 69.2031C136.099 69.0554 136.366 68.8509 136.559 68.5895C136.755 68.3253 136.853 68.0185 136.853 67.669C136.853 67.3736 136.776 67.1264 136.623 66.9276C136.469 66.7259 136.255 66.5568 135.979 66.4205C135.707 66.2841 135.39 66.1634 135.029 66.0582L133.985 65.7514C133.3 65.5469 132.769 65.2642 132.391 64.9034C132.013 64.5426 131.825 64.0824 131.825 63.5227C131.825 63.054 131.95 62.642 132.2 62.2869C132.452 61.929 132.793 61.6506 133.222 61.4517C133.654 61.25 134.138 61.1491 134.675 61.1491C135.218 61.1491 135.698 61.2486 136.116 61.4474C136.533 61.6463 136.864 61.9205 137.109 62.2699C137.356 62.6165 137.488 63.0114 137.505 63.4545H136.734ZM141.962 63.4545V64.1151H138.839V63.4545H141.962ZM139.815 61.8864H140.577V68.2912C140.577 68.5639 140.624 68.7784 140.718 68.9347C140.812 69.0881 140.934 69.1974 141.085 69.2628C141.235 69.3253 141.396 69.3565 141.566 69.3565C141.665 69.3565 141.751 69.3509 141.822 69.3395C141.893 69.3253 141.955 69.3111 142.009 69.2969L142.171 69.983C142.097 70.0114 142.006 70.0369 141.898 70.0597C141.79 70.0852 141.657 70.098 141.498 70.098C141.219 70.098 140.951 70.0369 140.692 69.9148C140.437 69.7926 140.227 69.6108 140.062 69.3693C139.897 69.1278 139.815 68.8281 139.815 68.4702V61.8864ZM146.261 70.1364C145.65 70.1364 145.122 69.9943 144.676 69.7102C144.23 69.4233 143.885 69.027 143.64 68.5213C143.399 68.0128 143.278 67.4276 143.278 66.7656C143.278 66.1065 143.399 65.5213 143.64 65.0099C143.885 64.4957 144.221 64.0937 144.65 63.804C145.082 63.5114 145.581 63.3651 146.146 63.3651C146.501 63.3651 146.843 63.4304 147.173 63.5611C147.502 63.6889 147.798 63.8864 148.059 64.1534C148.324 64.4176 148.532 64.7514 148.686 65.1548C148.839 65.5554 148.916 66.0298 148.916 66.5781V66.9531H143.802V66.2841H148.14C148.14 65.8636 148.055 65.4858 147.885 65.1506C147.717 64.8125 147.483 64.5455 147.181 64.3494C146.883 64.1534 146.538 64.0554 146.146 64.0554C145.731 64.0554 145.366 64.1662 145.051 64.3878C144.735 64.6094 144.488 64.902 144.309 65.2656C144.133 65.6293 144.044 66.027 144.041 66.4588V66.8594C144.041 67.3793 144.13 67.8338 144.309 68.223C144.491 68.6094 144.748 68.9091 145.081 69.1222C145.413 69.3352 145.806 69.4418 146.261 69.4418C146.571 69.4418 146.842 69.3935 147.075 69.2969C147.311 69.2003 147.508 69.071 147.667 68.9091C147.829 68.7443 147.951 68.5639 148.034 68.3679L148.754 68.6023C148.654 68.8778 148.491 69.1321 148.264 69.3651C148.039 69.598 147.758 69.7855 147.42 69.9276C147.085 70.0668 146.699 70.1364 146.261 70.1364ZM152.415 70.1491C152.021 70.1491 151.66 70.0724 151.333 69.919C151.006 69.7628 150.746 69.5384 150.553 69.2457C150.36 68.9503 150.263 68.5923 150.263 68.1719C150.263 67.848 150.325 67.5753 150.447 67.3537C150.569 67.1321 150.742 66.9503 150.967 66.8082C151.191 66.6662 151.457 66.554 151.763 66.4716C152.07 66.3892 152.408 66.3253 152.778 66.2798C153.144 66.2344 153.454 66.1946 153.707 66.1605C153.962 66.1264 154.157 66.0724 154.29 65.9986C154.424 65.9247 154.491 65.8054 154.491 65.6406V65.4872C154.491 65.0412 154.357 64.6903 154.09 64.4347C153.826 64.1761 153.445 64.0469 152.948 64.0469C152.477 64.0469 152.092 64.1506 151.793 64.358C151.498 64.5653 151.29 64.8097 151.171 65.0909L150.451 64.831C150.599 64.473 150.803 64.1875 151.065 63.9744C151.326 63.7585 151.619 63.6037 151.942 63.5099C152.266 63.4134 152.594 63.3651 152.927 63.3651C153.177 63.3651 153.437 63.3977 153.707 63.4631C153.979 63.5284 154.232 63.642 154.465 63.804C154.698 63.9631 154.887 64.1861 155.032 64.473C155.177 64.7571 155.249 65.1179 155.249 65.5554V70H154.491V68.9645H154.444C154.353 69.1577 154.218 69.3452 154.039 69.527C153.86 69.7088 153.636 69.858 153.366 69.9744C153.096 70.0909 152.779 70.1491 152.415 70.1491ZM152.518 69.4545C152.921 69.4545 153.271 69.3651 153.566 69.1861C153.862 69.0071 154.089 68.7699 154.248 68.4744C154.41 68.1761 154.491 67.848 154.491 67.4901V66.544C154.434 66.598 154.339 66.6463 154.205 66.6889C154.075 66.7315 153.923 66.7699 153.749 66.804C153.579 66.8352 153.408 66.8622 153.238 66.8849C153.067 66.9077 152.914 66.9276 152.778 66.9446C152.408 66.9901 152.093 67.0611 151.832 67.1577C151.57 67.2543 151.37 67.3878 151.231 67.5582C151.092 67.7259 151.022 67.9418 151.022 68.206C151.022 68.6037 151.164 68.9119 151.448 69.1307C151.732 69.3466 152.089 69.4545 152.518 69.4545ZM157.267 70V63.4545H158.004V64.4602H158.072C158.203 64.1222 158.42 63.8565 158.724 63.6634C159.031 63.4673 159.399 63.3693 159.828 63.3693C160.28 63.3693 160.651 63.4759 160.94 63.6889C161.233 63.8991 161.452 64.1889 161.597 64.5582H161.652C161.8 64.1946 162.04 63.9062 162.372 63.6932C162.707 63.4773 163.114 63.3693 163.591 63.3693C164.199 63.3693 164.679 63.5611 165.031 63.9446C165.384 64.3253 165.56 64.8821 165.56 65.6151V70H164.801V65.6151C164.801 65.098 164.669 64.7102 164.405 64.4517C164.141 64.1932 163.793 64.0639 163.361 64.0639C162.861 64.0639 162.476 64.2173 162.206 64.5241C161.936 64.831 161.801 65.2202 161.801 65.6918V70H161.026V65.5469C161.026 65.1037 160.902 64.7457 160.655 64.473C160.408 64.2003 160.06 64.0639 159.611 64.0639C159.31 64.0639 159.038 64.1378 158.797 64.2855C158.558 64.4332 158.369 64.6392 158.23 64.9034C158.094 65.1648 158.026 65.4659 158.026 65.8068V70H157.267ZM171.1 70V61.2727H173.917C174.537 61.2727 175.054 61.392 175.468 61.6307C175.886 61.8665 176.2 62.1875 176.41 62.5938C176.623 63 176.73 63.4574 176.73 63.9659C176.73 64.4744 176.625 64.9332 176.414 65.3423C176.204 65.7486 175.892 66.071 175.477 66.3097C175.062 66.5455 174.547 66.6634 173.93 66.6634H171.714V65.9474H173.909C174.366 65.9474 174.745 65.8622 175.047 65.6918C175.348 65.5185 175.572 65.2827 175.72 64.9844C175.87 64.6861 175.946 64.3466 175.946 63.9659C175.946 63.5852 175.87 63.2457 175.72 62.9474C175.572 62.6491 175.346 62.4148 175.042 62.2443C174.741 62.0739 174.359 61.9886 173.896 61.9886H171.897V70H171.1ZM178.443 70V63.4545H179.18V64.4602H179.235C179.366 64.1307 179.593 63.8651 179.917 63.6634C180.244 63.4588 180.613 63.3565 181.025 63.3565C181.088 63.3565 181.157 63.358 181.234 63.3608C181.311 63.3636 181.375 63.3665 181.426 63.3693V64.1406C181.392 64.1349 181.332 64.1264 181.247 64.1151C181.162 64.1037 181.069 64.098 180.97 64.098C180.629 64.098 180.325 64.1705 180.058 64.3153C179.794 64.4574 179.585 64.6548 179.431 64.9077C179.278 65.1605 179.201 65.4489 179.201 65.7727V70H178.443ZM185.065 70.1364C184.5 70.1364 184 69.9929 183.565 69.706C183.133 69.419 182.795 69.0227 182.551 68.517C182.306 68.0085 182.184 67.4219 182.184 66.7571C182.184 66.0866 182.306 65.4972 182.551 64.9886C182.795 64.4773 183.133 64.0795 183.565 63.7955C184 63.5085 184.5 63.3651 185.065 63.3651C185.63 63.3651 186.129 63.5085 186.561 63.7955C186.993 64.0824 187.331 64.4801 187.575 64.9886C187.822 65.4972 187.946 66.0866 187.946 66.7571C187.946 67.4219 187.824 68.0085 187.579 68.517C187.335 69.0227 186.995 69.419 186.561 69.706C186.129 69.9929 185.63 70.1364 185.065 70.1364ZM185.065 69.4418C185.52 69.4418 185.904 69.3196 186.22 69.0753C186.535 68.831 186.774 68.5057 186.936 68.0994C187.1 67.6932 187.183 67.2457 187.183 66.7571C187.183 66.2685 187.1 65.8196 186.936 65.4105C186.774 65.0014 186.535 64.6733 186.22 64.4261C185.904 64.179 185.52 64.0554 185.065 64.0554C184.613 64.0554 184.228 64.179 183.91 64.4261C183.595 64.6733 183.355 65.0014 183.19 65.4105C183.028 65.8196 182.947 66.2685 182.947 66.7571C182.947 67.2457 183.028 67.6932 183.19 68.0994C183.355 68.5057 183.595 68.831 183.91 69.0753C184.225 69.3196 184.61 69.4418 185.065 69.4418ZM192.304 63.4545V64.1151H189.087V63.4545H192.304ZM190.092 70V62.4957C190.092 62.1435 190.173 61.8466 190.335 61.6051C190.5 61.3636 190.714 61.1804 190.979 61.0554C191.243 60.9304 191.523 60.8679 191.818 60.8679C192.017 60.8679 192.182 60.8849 192.312 60.919C192.446 60.9503 192.551 60.9815 192.628 61.0128L192.406 61.6776C192.349 61.6605 192.28 61.6406 192.197 61.6179C192.115 61.5952 192.011 61.5838 191.886 61.5838C191.557 61.5838 191.303 61.6761 191.124 61.8608C190.945 62.0455 190.855 62.3097 190.855 62.6534L190.851 70H190.092ZM193.826 70V63.4545H194.589V70H193.826ZM194.214 62.3295C194.058 62.3295 193.924 62.277 193.814 62.1719C193.703 62.0639 193.647 61.9347 193.647 61.7841C193.647 61.6335 193.703 61.5057 193.814 61.4006C193.924 61.2926 194.058 61.2386 194.214 61.2386C194.37 61.2386 194.504 61.2926 194.615 61.4006C194.725 61.5057 194.781 61.6335 194.781 61.7841C194.781 61.9347 194.725 62.0639 194.615 62.1719C194.504 62.277 194.37 62.3295 194.214 62.3295ZM197.354 61.2727V70H196.595V61.2727H197.354ZM202.007 70.1364C201.396 70.1364 200.868 69.9943 200.422 69.7102C199.976 69.4233 199.631 69.027 199.386 68.5213C199.145 68.0128 199.024 67.4276 199.024 66.7656C199.024 66.1065 199.145 65.5213 199.386 65.0099C199.631 64.4957 199.967 64.0937 200.396 63.804C200.828 63.5114 201.327 63.3651 201.892 63.3651C202.247 63.3651 202.589 63.4304 202.919 63.5611C203.249 63.6889 203.544 63.8864 203.805 64.1534C204.07 64.4176 204.278 64.7514 204.432 65.1548C204.585 65.5554 204.662 66.0298 204.662 66.5781V66.9531H199.548V66.2841H203.886C203.886 65.8636 203.801 65.4858 203.631 65.1506C203.463 64.8125 203.229 64.5455 202.928 64.3494C202.629 64.1534 202.284 64.0554 201.892 64.0554C201.477 64.0554 201.112 64.1662 200.797 64.3878C200.482 64.6094 200.234 64.902 200.055 65.2656C199.879 65.6293 199.79 66.027 199.787 66.4588V66.8594C199.787 67.3793 199.876 67.8338 200.055 68.223C200.237 68.6094 200.494 68.9091 200.827 69.1222C201.159 69.3352 201.553 69.4418 202.007 69.4418C202.317 69.4418 202.588 69.3935 202.821 69.2969C203.057 69.2003 203.254 69.071 203.413 68.9091C203.575 68.7443 203.697 68.5639 203.78 68.3679L204.5 68.6023C204.401 68.8778 204.237 69.1321 204.01 69.3651C203.786 69.598 203.504 69.7855 203.166 69.9276C202.831 70.0668 202.445 70.1364 202.007 70.1364ZM216.701 64H215.9C215.841 63.7017 215.733 63.4261 215.576 63.1733C215.423 62.9176 215.23 62.6946 214.997 62.5043C214.764 62.3139 214.5 62.1662 214.204 62.0611C213.909 61.956 213.589 61.9034 213.245 61.9034C212.694 61.9034 212.191 62.0469 211.737 62.3338C211.285 62.6207 210.923 63.0426 210.65 63.5994C210.38 64.1534 210.245 64.8324 210.245 65.6364C210.245 66.446 210.38 67.1278 210.65 67.6818C210.923 68.2358 211.285 68.6562 211.737 68.9432C212.191 69.2273 212.694 69.3693 213.245 69.3693C213.589 69.3693 213.909 69.3168 214.204 69.2116C214.5 69.1065 214.764 68.9602 214.997 68.7727C215.23 68.5824 215.423 68.3594 215.576 68.1037C215.733 67.848 215.841 67.571 215.9 67.2727H216.701C216.63 67.6733 216.497 68.0469 216.301 68.3935C216.108 68.7372 215.86 69.0384 215.559 69.2969C215.261 69.5554 214.917 69.7571 214.528 69.902C214.139 70.0469 213.711 70.1193 213.245 70.1193C212.512 70.1193 211.862 69.9361 211.294 69.5696C210.725 69.2003 210.279 68.6804 209.956 68.0099C209.635 67.3395 209.474 66.5483 209.474 65.6364C209.474 64.7244 209.635 63.9332 209.956 63.2628C210.279 62.5923 210.725 62.0739 211.294 61.7074C211.862 61.3381 212.512 61.1534 213.245 61.1534C213.711 61.1534 214.139 61.2259 214.528 61.3707C214.917 61.5128 215.261 61.7145 215.559 61.9759C215.86 62.2344 216.108 62.5355 216.301 62.8793C216.497 63.223 216.63 63.5966 216.701 64ZM220.244 70.1491C219.849 70.1491 219.488 70.0724 219.161 69.919C218.835 69.7628 218.575 69.5384 218.381 69.2457C218.188 68.9503 218.092 68.5923 218.092 68.1719C218.092 67.848 218.153 67.5753 218.275 67.3537C218.397 67.1321 218.57 66.9503 218.795 66.8082C219.019 66.6662 219.285 66.554 219.592 66.4716C219.898 66.3892 220.237 66.3253 220.606 66.2798C220.972 66.2344 221.282 66.1946 221.535 66.1605C221.79 66.1264 221.985 66.0724 222.119 65.9986C222.252 65.9247 222.319 65.8054 222.319 65.6406V65.4872C222.319 65.0412 222.185 64.6903 221.918 64.4347C221.654 64.1761 221.273 64.0469 220.776 64.0469C220.305 64.0469 219.92 64.1506 219.621 64.358C219.326 64.5653 219.119 64.8097 218.999 65.0909L218.279 64.831C218.427 64.473 218.631 64.1875 218.893 63.9744C219.154 63.7585 219.447 63.6037 219.771 63.5099C220.094 63.4134 220.423 63.3651 220.755 63.3651C221.005 63.3651 221.265 63.3977 221.535 63.4631C221.808 63.5284 222.06 63.642 222.293 63.804C222.526 63.9631 222.715 64.1861 222.86 64.473C223.005 64.7571 223.077 65.1179 223.077 65.5554V70H222.319V68.9645H222.272C222.181 69.1577 222.046 69.3452 221.867 69.527C221.688 69.7088 221.464 69.858 221.194 69.9744C220.924 70.0909 220.607 70.1491 220.244 70.1491ZM220.346 69.4545C220.749 69.4545 221.099 69.3651 221.394 69.1861C221.69 69.0071 221.917 68.7699 222.076 68.4744C222.238 68.1761 222.319 67.848 222.319 67.4901V66.544C222.262 66.598 222.167 66.6463 222.033 66.6889C221.903 66.7315 221.751 66.7699 221.577 66.804C221.407 66.8352 221.237 66.8622 221.066 66.8849C220.896 66.9077 220.742 66.9276 220.606 66.9446C220.237 66.9901 219.921 67.0611 219.66 67.1577C219.398 67.2543 219.198 67.3878 219.059 67.5582C218.92 67.7259 218.85 67.9418 218.85 68.206C218.85 68.6037 218.992 68.9119 219.276 69.1307C219.56 69.3466 219.917 69.4545 220.346 69.4545ZM225.095 70V63.4545H225.832V64.4602H225.888C226.018 64.1307 226.246 63.8651 226.57 63.6634C226.896 63.4588 227.266 63.3565 227.678 63.3565C227.74 63.3565 227.81 63.358 227.886 63.3608C227.963 63.3636 228.027 63.3665 228.078 63.3693V64.1406C228.044 64.1349 227.984 64.1264 227.899 64.1151C227.814 64.1037 227.722 64.098 227.622 64.098C227.281 64.098 226.977 64.1705 226.71 64.3153C226.446 64.4574 226.237 64.6548 226.084 64.9077C225.93 65.1605 225.854 65.4489 225.854 65.7727V70H225.095ZM231.53 70.1364C230.993 70.1364 230.523 69.9943 230.119 69.7102C229.716 69.4261 229.401 69.0298 229.173 68.5213C228.949 68.0128 228.837 67.4205 228.837 66.7443C228.837 66.071 228.949 65.4815 229.173 64.9759C229.401 64.4673 229.717 64.0724 230.124 63.7912C230.53 63.5071 231.003 63.3651 231.543 63.3651C231.94 63.3651 232.271 63.4361 232.536 63.5781C232.8 63.7173 233.011 63.8906 233.17 64.098C233.33 64.3054 233.453 64.5071 233.541 64.7031H233.609V61.2727H234.372V70H233.631V68.7855H233.541C233.453 68.9844 233.328 69.1889 233.166 69.3991C233.004 69.6065 232.79 69.7812 232.523 69.9233C232.259 70.0653 231.928 70.1364 231.53 70.1364ZM231.619 69.4418C232.043 69.4418 232.403 69.3267 232.702 69.0966C233 68.8636 233.227 68.544 233.384 68.1378C233.543 67.7287 233.622 67.2599 233.622 66.7315C233.622 66.2088 233.544 65.7472 233.388 65.3466C233.232 64.9432 233.004 64.6278 232.706 64.4006C232.408 64.1705 232.045 64.0554 231.619 64.0554C231.182 64.0554 230.813 64.1747 230.511 64.4134C230.213 64.6491 229.986 64.9687 229.83 65.3722C229.676 65.7756 229.599 66.2287 229.599 66.7315C229.599 67.2401 229.678 67.6989 229.834 68.108C229.99 68.517 230.217 68.8423 230.516 69.0838C230.817 69.3224 231.185 69.4418 231.619 69.4418ZM243.334 67.2727H244.22L245.337 68.7514L245.524 68.9986L246.896 70.8182H246.01L245.004 69.4759L244.825 69.2372L243.334 67.2727ZM247.22 65.6364C247.22 66.5455 247.058 67.3366 246.734 68.0099C246.411 68.6804 245.964 69.2003 245.396 69.5696C244.831 69.9361 244.18 70.1193 243.445 70.1193C242.709 70.1193 242.057 69.9361 241.489 69.5696C240.923 69.2003 240.479 68.6804 240.155 68.0099C239.834 67.3366 239.673 66.5455 239.673 65.6364C239.673 64.7273 239.834 63.9375 240.155 63.267C240.479 62.5937 240.925 62.0739 241.493 61.7074C242.061 61.3381 242.712 61.1534 243.445 61.1534C244.18 61.1534 244.831 61.3381 245.396 61.7074C245.964 62.0739 246.411 62.5937 246.734 63.267C247.058 63.9375 247.22 64.7273 247.22 65.6364ZM246.445 65.6364C246.445 64.8551 246.314 64.1861 246.053 63.6293C245.791 63.0696 245.435 62.642 244.983 62.3466C244.531 62.0511 244.018 61.9034 243.445 61.9034C242.874 61.9034 242.362 62.0511 241.911 62.3466C241.459 62.642 241.101 63.0682 240.837 63.625C240.575 64.1818 240.445 64.8523 240.445 65.6364C240.445 66.4176 240.575 67.0866 240.837 67.6435C241.098 68.2003 241.455 68.6278 241.906 68.9261C242.358 69.2216 242.871 69.3693 243.445 69.3693C244.018 69.3693 244.531 69.2216 244.983 68.9261C245.438 68.6307 245.795 68.2045 246.057 67.6477C246.318 67.0881 246.447 66.4176 246.445 65.6364ZM253.149 67.4986V63.4545H253.907V70H253.149V68.9134H253.089C252.936 69.2486 252.693 69.5284 252.36 69.7528C252.028 69.9744 251.622 70.0852 251.142 70.0852C250.724 70.0852 250.353 69.9943 250.029 69.8125C249.706 69.6278 249.451 69.358 249.267 69.0028C249.082 68.6477 248.99 68.2116 248.99 67.6946V63.4545H249.748V67.6477C249.748 68.1591 249.899 68.571 250.2 68.8835C250.501 69.1932 250.887 69.348 251.359 69.348C251.654 69.348 251.939 69.277 252.211 69.1349C252.484 68.9929 252.708 68.7855 252.885 68.5128C253.061 68.2372 253.149 67.8991 253.149 67.4986ZM255.924 70V63.4545H256.687V70H255.924ZM256.312 62.3295C256.156 62.3295 256.022 62.277 255.911 62.1719C255.8 62.0639 255.745 61.9347 255.745 61.7841C255.745 61.6335 255.8 61.5057 255.911 61.4006C256.022 61.2926 256.156 61.2386 256.312 61.2386C256.468 61.2386 256.602 61.2926 256.712 61.4006C256.823 61.5057 256.879 61.6335 256.879 61.7841C256.879 61.9347 256.823 62.0639 256.712 62.1719C256.602 62.277 256.468 62.3295 256.312 62.3295ZM261.25 70.1364C260.664 70.1364 260.154 69.9901 259.72 69.6974C259.288 69.4048 258.953 69.0043 258.714 68.4957C258.475 67.9872 258.356 67.4077 258.356 66.7571C258.356 66.1009 258.477 65.517 258.718 65.0057C258.963 64.4943 259.301 64.0937 259.733 63.804C260.164 63.5114 260.666 63.3651 261.237 63.3651C261.674 63.3651 262.071 63.4503 262.426 63.6207C262.781 63.7884 263.074 64.0256 263.304 64.3324C263.537 64.6364 263.683 64.9915 263.743 65.3977H262.975C262.896 65.0284 262.704 64.7131 262.4 64.4517C262.099 64.1875 261.716 64.0554 261.25 64.0554C260.832 64.0554 260.463 64.169 260.142 64.3963C259.821 64.6207 259.569 64.9347 259.387 65.3381C259.208 65.7386 259.119 66.2031 259.119 66.7315C259.119 67.2628 259.207 67.733 259.383 68.142C259.559 68.5483 259.806 68.8665 260.125 69.0966C260.446 69.3267 260.821 69.4418 261.25 69.4418C261.539 69.4418 261.804 69.3878 262.042 69.2798C262.284 69.169 262.485 69.0128 262.647 68.8111C262.812 68.6094 262.923 68.3693 262.98 68.0909H263.747C263.69 68.4858 263.549 68.8381 263.325 69.1477C263.103 69.4545 262.815 69.696 262.46 69.8722C262.108 70.0483 261.704 70.1364 261.25 70.1364ZM266.063 67.5284L266.054 66.5355H266.225L269.293 63.4545H270.252L267.222 66.4886L267.154 66.5014L266.063 67.5284ZM265.373 70V61.2727H266.131V70H265.373ZM269.451 70L266.792 66.6378L267.337 66.1136L270.422 70H269.451ZM272.436 61.2727V70H271.677V61.2727H272.436ZM274.971 72.4545C274.821 72.4545 274.68 72.4403 274.549 72.4119C274.419 72.3835 274.315 72.3523 274.238 72.3182L274.443 71.6491C274.701 71.7287 274.931 71.7571 275.133 71.7344C275.335 71.7145 275.514 71.6236 275.67 71.4616C275.826 71.3026 275.966 71.0582 276.088 70.7287L276.326 70.0639L273.919 63.4545H274.741L276.684 68.9986H276.744L278.687 63.4545H279.51L276.74 71.0355C276.623 71.3509 276.48 71.6136 276.309 71.8239C276.139 72.0369 275.941 72.1946 275.717 72.2969C275.495 72.402 275.247 72.4545 274.971 72.4545Z" fill="#454343"/>
<path d="M284.329 80L297.344 64.4233H291.941L298.026 56H288.857L284 69.0055H288.711L284.329 80Z" fill="#EAC814"/>
<defs>
<linearGradient id="paint0_linear_2_14" x1="5" y1="46.1364" x2="280" y2="46.1364" gradientUnits="userSpaceOnUse">
<stop stop-color="#6FCE4E"/>
<stop offset="0.9999" stop-color="#3CB0D5" stop-opacity="0.75"/>
<stop offset="1" stop-color="#7DA33F" stop-opacity="0"/>
</linearGradient>
</defs>
</svg>
