<svg width="294" height="82" viewBox="0 0 294 82" fill="none" xmlns="http://www.w3.org/2000/svg">
<path d="M26.9716 21.1307C26.8352 19.7557 26.25 18.6875 25.2159 17.9261C24.1818 17.1648 22.7784 16.7841 21.0057 16.7841C19.8011 16.7841 18.7841 16.9545 17.9545 17.2955C17.125 17.625 16.4886 18.0852 16.0455 18.6761C15.6136 19.267 15.3977 19.9375 15.3977 20.6875C15.375 21.3125 15.5057 21.858 15.7898 22.3239C16.0852 22.7898 16.4886 23.1932 17 23.5341C17.5114 23.8636 18.1023 24.1534 18.7727 24.4034C19.4432 24.642 20.1591 24.8466 20.9205 25.017L24.0568 25.767C25.5795 26.108 26.9773 26.5625 28.25 27.1307C29.5227 27.6989 30.625 28.3977 31.5568 29.2273C32.4886 30.0568 33.2102 31.0341 33.7216 32.1591C34.2443 33.2841 34.5114 34.5739 34.5227 36.0284C34.5114 38.1648 33.9659 40.017 32.8864 41.5852C31.8182 43.142 30.2727 44.3523 28.25 45.2159C26.2386 46.0682 23.8125 46.4943 20.9716 46.4943C18.1534 46.4943 15.6989 46.0625 13.608 45.1989C11.5284 44.3352 9.90341 43.0568 8.73295 41.3636C7.57386 39.6591 6.96591 37.5511 6.90909 35.0398H14.0511C14.1307 36.2102 14.4659 37.1875 15.0568 37.9716C15.6591 38.7443 16.4602 39.3295 17.4602 39.7273C18.4716 40.1136 19.6136 40.3068 20.8864 40.3068C22.1364 40.3068 23.2216 40.125 24.142 39.7614C25.0739 39.3977 25.7955 38.892 26.3068 38.2443C26.8182 37.5966 27.0739 36.8523 27.0739 36.0114C27.0739 35.2273 26.8409 34.5682 26.375 34.0341C25.9205 33.5 25.25 33.0455 24.3636 32.6705C23.4886 32.2955 22.4148 31.9545 21.142 31.6477L17.3409 30.6932C14.3977 29.9773 12.0739 28.858 10.3693 27.3352C8.66477 25.8125 7.81818 23.7614 7.82955 21.1818C7.81818 19.0682 8.38068 17.2216 9.51705 15.642C10.6648 14.0625 12.2386 12.8295 14.2386 11.9432C16.2386 11.0568 18.5114 10.6136 21.0568 10.6136C23.6477 10.6136 25.9091 11.0568 27.8409 11.9432C29.7841 12.8295 31.2955 14.0625 32.375 15.642C33.4545 17.2216 34.0114 19.0511 34.0455 21.1307H26.9716ZM53.277 19.8182V25.2727H37.5099V19.8182H53.277ZM41.0895 13.5455H48.3509V37.9545C48.3509 38.625 48.4531 39.1477 48.6577 39.5227C48.8622 39.8864 49.1463 40.142 49.5099 40.2898C49.8849 40.4375 50.3168 40.5114 50.8054 40.5114C51.1463 40.5114 51.4872 40.483 51.8281 40.4261C52.169 40.358 52.4304 40.3068 52.6122 40.2727L53.7543 45.6761C53.3906 45.7898 52.8793 45.9205 52.2202 46.0682C51.5611 46.2273 50.7599 46.3239 49.8168 46.358C48.0668 46.4261 46.5327 46.1932 45.2145 45.6591C43.9077 45.125 42.8906 44.2955 42.1634 43.1705C41.4361 42.0455 41.0781 40.625 41.0895 38.9091V13.5455ZM69.6577 46.5114C66.9645 46.5114 64.6463 45.9659 62.7031 44.875C60.7713 43.7727 59.2827 42.2159 58.2372 40.2045C57.1918 38.1818 56.669 35.7898 56.669 33.0284C56.669 30.3352 57.1918 27.9716 58.2372 25.9375C59.2827 23.9034 60.7543 22.3182 62.652 21.1818C64.5611 20.0455 66.7997 19.4773 69.3679 19.4773C71.0952 19.4773 72.7031 19.7557 74.1918 20.3125C75.6918 20.858 76.9986 21.6818 78.1122 22.7841C79.2372 23.8864 80.1122 25.2727 80.7372 26.9432C81.3622 28.6023 81.6747 30.5455 81.6747 32.7727V34.767H59.5668V30.267H74.8395C74.8395 29.2216 74.6122 28.2955 74.1577 27.4886C73.7031 26.6818 73.0724 26.0511 72.2656 25.5966C71.4702 25.1307 70.544 24.8977 69.4872 24.8977C68.3849 24.8977 67.4077 25.1534 66.5554 25.6648C65.7145 26.1648 65.0554 26.8409 64.5781 27.6932C64.1009 28.5341 63.8565 29.4716 63.8452 30.5057V34.7841C63.8452 36.0795 64.0838 37.1989 64.5611 38.142C65.0497 39.0852 65.7372 39.8125 66.6236 40.3239C67.5099 40.8352 68.5611 41.0909 69.777 41.0909C70.5838 41.0909 71.3224 40.9773 71.9929 40.75C72.6634 40.5227 73.2372 40.1818 73.7145 39.7273C74.1918 39.2727 74.5554 38.7159 74.8054 38.0568L81.5213 38.5C81.1804 40.1136 80.4815 41.5227 79.4247 42.7273C78.3793 43.9205 77.027 44.8523 75.3679 45.5227C73.7202 46.1818 71.8168 46.5114 69.6577 46.5114ZM93.8793 46.4943C92.2088 46.4943 90.7202 46.2045 89.4134 45.625C88.1065 45.0341 87.0724 44.1648 86.3111 43.017C85.5611 41.858 85.1861 40.4148 85.1861 38.6875C85.1861 37.233 85.4531 36.0114 85.9872 35.0227C86.5213 34.0341 87.2486 33.2386 88.169 32.6364C89.0895 32.0341 90.1349 31.5795 91.3054 31.2727C92.4872 30.9659 93.7259 30.75 95.0213 30.625C96.544 30.4659 97.7713 30.3182 98.7031 30.1818C99.6349 30.0341 100.311 29.8182 100.732 29.5341C101.152 29.25 101.362 28.8295 101.362 28.2727V28.1705C101.362 27.0909 101.021 26.2557 100.339 25.6648C99.669 25.0739 98.7145 24.7784 97.4759 24.7784C96.169 24.7784 95.1293 25.0682 94.3565 25.6477C93.5838 26.2159 93.0724 26.9318 92.8224 27.7955L86.1065 27.25C86.4474 25.6591 87.1179 24.2841 88.1179 23.125C89.1179 21.9545 90.4077 21.0568 91.9872 20.4318C93.5781 19.7955 95.419 19.4773 97.5099 19.4773C98.9645 19.4773 100.357 19.6477 101.686 19.9886C103.027 20.3295 104.214 20.858 105.249 21.5739C106.294 22.2898 107.118 23.2102 107.72 24.3352C108.322 25.4489 108.624 26.7841 108.624 28.3409V46H101.737V42.3693H101.533C101.112 43.1875 100.55 43.9091 99.8452 44.5341C99.1406 45.1477 98.294 45.6307 97.3054 45.983C96.3168 46.3239 95.1747 46.4943 93.8793 46.4943ZM95.9588 41.483C97.027 41.483 97.9702 41.2727 98.7884 40.8523C99.6065 40.4205 100.249 39.8409 100.714 39.1136C101.18 38.3864 101.413 37.5625 101.413 36.642V33.8636C101.186 34.0114 100.874 34.1477 100.476 34.2727C100.089 34.3864 99.652 34.4943 99.1634 34.5966C98.6747 34.6875 98.1861 34.7727 97.6974 34.8523C97.2088 34.9205 96.7656 34.983 96.3679 35.0398C95.5156 35.1648 94.7713 35.3636 94.1349 35.6364C93.4986 35.9091 93.0043 36.2784 92.652 36.7443C92.2997 37.1989 92.1236 37.767 92.1236 38.4489C92.1236 39.4375 92.4815 40.1932 93.1974 40.7159C93.9247 41.2273 94.8452 41.483 95.9588 41.483ZM114.257 46V19.8182H121.178V24.4375H121.484C122.03 22.9034 122.939 21.6932 124.212 20.8068C125.484 19.9205 127.007 19.4773 128.78 19.4773C130.575 19.4773 132.104 19.9261 133.365 20.8239C134.626 21.7102 135.467 22.9148 135.888 24.4375H136.161C136.695 22.9375 137.661 21.7386 139.058 20.8409C140.467 19.9318 142.132 19.4773 144.053 19.4773C146.496 19.4773 148.479 20.2557 150.001 21.8125C151.536 23.358 152.303 25.5511 152.303 28.392V46H145.058V29.8239C145.058 28.3693 144.672 27.2784 143.899 26.5511C143.126 25.8239 142.161 25.4602 141.001 25.4602C139.683 25.4602 138.655 25.8807 137.916 26.7216C137.178 27.5511 136.808 28.6477 136.808 30.0114V46H129.768V29.6705C129.768 28.3864 129.399 27.3636 128.661 26.6023C127.933 25.8409 126.973 25.4602 125.78 25.4602C124.973 25.4602 124.246 25.6648 123.598 26.0739C122.962 26.4716 122.456 27.0341 122.081 27.7614C121.706 28.4773 121.518 29.3182 121.518 30.2841V46H114.257ZM200.085 23.3125H192.619C192.483 22.3466 192.205 21.4886 191.784 20.7386C191.364 19.9773 190.824 19.3295 190.165 18.7955C189.506 18.2614 188.744 17.8523 187.881 17.5682C187.028 17.2841 186.102 17.142 185.102 17.142C183.295 17.142 181.722 17.5909 180.381 18.4886C179.04 19.375 178 20.6705 177.261 22.375C176.523 24.0682 176.153 26.125 176.153 28.5455C176.153 31.0341 176.523 33.125 177.261 34.8182C178.011 36.5114 179.057 37.7898 180.398 38.6534C181.739 39.517 183.29 39.9489 185.051 39.9489C186.04 39.9489 186.955 39.8182 187.795 39.5568C188.648 39.2955 189.403 38.9148 190.062 38.4148C190.722 37.9034 191.267 37.2841 191.699 36.5568C192.142 35.8295 192.449 35 192.619 34.0682L200.085 34.1023C199.892 35.7045 199.409 37.25 198.636 38.7386C197.875 40.2159 196.847 41.5398 195.551 42.7102C194.267 43.8693 192.733 44.7898 190.949 45.4716C189.176 46.142 187.17 46.4773 184.932 46.4773C181.818 46.4773 179.034 45.7727 176.58 44.3636C174.136 42.9545 172.205 40.9148 170.784 38.2443C169.375 35.5739 168.67 32.3409 168.67 28.5455C168.67 24.7386 169.386 21.5 170.818 18.8295C172.25 16.1591 174.193 14.125 176.648 12.7273C179.102 11.3182 181.864 10.6136 184.932 10.6136C186.955 10.6136 188.83 10.8977 190.557 11.4659C192.295 12.0341 193.835 12.8636 195.176 13.9545C196.517 15.0341 197.608 16.358 198.449 17.9261C199.301 19.4943 199.847 21.2898 200.085 23.3125ZM212.707 46.4943C211.037 46.4943 209.548 46.2045 208.241 45.625C206.935 45.0341 205.901 44.1648 205.139 43.017C204.389 41.858 204.014 40.4148 204.014 38.6875C204.014 37.233 204.281 36.0114 204.815 35.0227C205.349 34.0341 206.077 33.2386 206.997 32.6364C207.918 32.0341 208.963 31.5795 210.134 31.2727C211.315 30.9659 212.554 30.75 213.849 30.625C215.372 30.4659 216.599 30.3182 217.531 30.1818C218.463 30.0341 219.139 29.8182 219.56 29.5341C219.98 29.25 220.19 28.8295 220.19 28.2727V28.1705C220.19 27.0909 219.849 26.2557 219.168 25.6648C218.497 25.0739 217.543 24.7784 216.304 24.7784C214.997 24.7784 213.957 25.0682 213.185 25.6477C212.412 26.2159 211.901 26.9318 211.651 27.7955L204.935 27.25C205.276 25.6591 205.946 24.2841 206.946 23.125C207.946 21.9545 209.236 21.0568 210.815 20.4318C212.406 19.7955 214.247 19.4773 216.338 19.4773C217.793 19.4773 219.185 19.6477 220.514 19.9886C221.855 20.3295 223.043 20.858 224.077 21.5739C225.122 22.2898 225.946 23.2102 226.548 24.3352C227.151 25.4489 227.452 26.7841 227.452 28.3409V46H220.565V42.3693H220.361C219.94 43.1875 219.378 43.9091 218.673 44.5341C217.969 45.1477 217.122 45.6307 216.134 45.983C215.145 46.3239 214.003 46.4943 212.707 46.4943ZM214.787 41.483C215.855 41.483 216.798 41.2727 217.616 40.8523C218.435 40.4205 219.077 39.8409 219.543 39.1136C220.009 38.3864 220.241 37.5625 220.241 36.642V33.8636C220.014 34.0114 219.702 34.1477 219.304 34.2727C218.918 34.3864 218.48 34.4943 217.991 34.5966C217.503 34.6875 217.014 34.7727 216.526 34.8523C216.037 34.9205 215.594 34.983 215.196 35.0398C214.344 35.1648 213.599 35.3636 212.963 35.6364C212.327 35.9091 211.832 36.2784 211.48 36.7443C211.128 37.1989 210.952 37.767 210.952 38.4489C210.952 39.4375 211.31 40.1932 212.026 40.7159C212.753 41.2273 213.673 41.483 214.787 41.483ZM233.085 46V19.8182H240.125V24.3864H240.398C240.875 22.7614 241.676 21.5341 242.801 20.7045C243.926 19.8636 245.222 19.4432 246.688 19.4432C247.051 19.4432 247.443 19.4659 247.864 19.5114C248.284 19.5568 248.653 19.6193 248.972 19.6989V26.142C248.631 26.0398 248.159 25.9489 247.557 25.8693C246.955 25.7898 246.403 25.75 245.903 25.75C244.835 25.75 243.881 25.983 243.04 26.4489C242.21 26.9034 241.551 27.5398 241.062 28.358C240.585 29.1761 240.347 30.1193 240.347 31.1875V46H233.085ZM261.155 46.4261C259.166 46.4261 257.365 45.9148 255.751 44.892C254.149 43.858 252.876 42.3409 251.933 40.3409C251.001 38.3295 250.536 35.8636 250.536 32.9432C250.536 29.9432 251.018 27.4489 251.984 25.4602C252.95 23.4602 254.234 21.9659 255.837 20.9773C257.45 19.9773 259.217 19.4773 261.138 19.4773C262.604 19.4773 263.825 19.7273 264.803 20.2273C265.791 20.7159 266.587 21.3295 267.189 22.0682C267.803 22.7955 268.268 23.5114 268.587 24.2159H268.808V11.0909H276.053V46H268.893V41.8068H268.587C268.246 42.5341 267.763 43.2557 267.138 43.9716C266.524 44.6761 265.723 45.2614 264.734 45.7273C263.757 46.1932 262.564 46.4261 261.155 46.4261ZM263.456 40.6477C264.626 40.6477 265.615 40.3295 266.422 39.6932C267.24 39.0455 267.865 38.142 268.297 36.983C268.74 35.8239 268.962 34.4659 268.962 32.9091C268.962 31.3523 268.746 30 268.314 28.8523C267.882 27.7045 267.257 26.8182 266.439 26.1932C265.621 25.5682 264.626 25.2557 263.456 25.2557C262.263 25.2557 261.257 25.5795 260.439 26.2273C259.621 26.875 259.001 27.7727 258.581 28.9205C258.161 30.0682 257.95 31.3977 257.95 32.9091C257.95 34.4318 258.161 35.7784 258.581 36.9489C259.013 38.108 259.632 39.017 260.439 39.6761C261.257 40.3239 262.263 40.6477 263.456 40.6477Z" fill="url(#paint0_linear_5_2)"/>
<path d="M97.04 59.92V70.948H97.928V59.92H97.04ZM95.96 62.236C95.876 63.208 95.648 64.528 95.336 65.332L96.044 65.572C96.356 64.696 96.584 63.316 96.644 62.344L95.96 62.236ZM97.952 62.128C98.312 62.848 98.708 63.808 98.84 64.384L99.524 64.036C99.368 63.484 98.972 62.56 98.6 61.852L97.952 62.128ZM99.596 61.84V62.692H104.648V65.92H105.536V61.84H99.596ZM98.96 65.44V66.304H106.568V65.44H98.96ZM102.992 65.62L102.188 65.788C102.836 68.2 104.036 70.132 106.028 70.996C106.172 70.744 106.46 70.36 106.676 70.168C104.792 69.472 103.556 67.696 102.992 65.62ZM101.948 59.92V63.928C101.948 66.028 101.828 68.68 98.564 70.312C98.768 70.492 99.068 70.816 99.188 71.008C102.548 69.172 102.848 66.28 102.848 63.928V59.92H101.948ZM110.132 64.66H107.576V65.5H109.256V68.908H110.132V64.66ZM110.132 68.512H109.316C108.704 69.028 107.996 69.556 107.42 69.94L107.9 70.864C108.548 70.336 109.16 69.82 109.736 69.304C110.504 70.252 111.584 70.672 113.144 70.732C114.476 70.78 116.96 70.756 118.28 70.708C118.316 70.432 118.472 70 118.568 69.784C117.152 69.88 114.452 69.916 113.144 69.868C111.764 69.808 110.696 69.4 110.132 68.512ZM107.708 60.76C108.488 61.288 109.388 62.104 109.772 62.68L110.48 62.092C110.06 61.504 109.16 60.724 108.368 60.22L107.708 60.76ZM112.148 63.676H116.912V65.2H112.148V63.676ZM111.308 62.944V65.932H117.788V62.944H111.308ZM110.816 61.18V61.96H118.328V61.18H110.816ZM114.044 59.944V69.412H114.908V59.944H114.044ZM113.744 65.644C113.084 66.748 111.776 67.864 110.588 68.38C110.78 68.536 111.044 68.848 111.176 69.064C112.388 68.428 113.696 67.18 114.404 65.896L113.744 65.644ZM115.124 65.644L114.488 65.932C115.244 67.12 116.612 68.392 117.788 69.028C117.92 68.8 118.196 68.5 118.4 68.32C117.212 67.804 115.844 66.7 115.124 65.644ZM121.496 62.26V63.136H129.812V62.26H121.496ZM120.968 65.776V66.64H129.38V65.776H120.968ZM119.66 69.7V70.576H130.376V69.7H119.66ZM124.556 59.932V70.144H125.48V59.932H124.556ZM121.856 60.124C121.4 61.84 120.62 63.508 119.636 64.576C119.864 64.696 120.272 64.96 120.452 65.116C121.412 63.964 122.252 62.188 122.78 60.328L121.856 60.124ZM133.04 64.42V65.26H136.028V64.42H133.04ZM135.668 64.42V64.576C135.632 67.168 135.572 68.068 135.392 68.284C135.308 68.392 135.188 68.404 135.02 68.404C134.816 68.404 134.288 68.404 133.748 68.356C133.88 68.584 133.976 68.932 134 69.196C134.588 69.22 135.128 69.232 135.44 69.196C135.776 69.16 135.968 69.076 136.16 68.86C136.412 68.524 136.484 67.516 136.544 64.804C136.544 64.684 136.544 64.42 136.544 64.42H135.668ZM139.052 60.532C139.808 60.928 140.732 61.54 141.188 61.96L141.752 61.348C141.284 60.928 140.336 60.352 139.592 59.968L139.052 60.532ZM140.768 63.784C139.868 66.676 138.176 68.872 135.74 70.168C135.932 70.348 136.268 70.72 136.4 70.9C138.86 69.448 140.648 67.132 141.668 64L140.768 63.784ZM133.112 61.96V62.848H142.4V61.96H133.112ZM132.536 61.96V65.332C132.536 66.904 132.428 68.968 131.432 70.444C131.648 70.552 132.032 70.864 132.188 71.044C133.28 69.472 133.472 67.048 133.472 65.344V61.96H132.536ZM137.516 59.944C137.564 65.692 138.644 70.876 141.092 70.876C142.004 70.876 142.34 70.288 142.508 68.236C142.268 68.152 141.932 67.948 141.728 67.744C141.656 69.34 141.5 69.964 141.164 69.964C139.604 69.964 138.428 65.464 138.452 59.944H137.516ZM148.58 59.98C148.184 61.744 147.488 63.472 146.6 64.588C146.804 64.72 147.164 65.008 147.32 65.164C148.244 63.94 149 62.092 149.468 60.172L148.58 59.98ZM148.376 65.068C148.04 66.508 147.464 67.936 146.72 68.86C146.936 68.968 147.32 69.208 147.5 69.352C148.232 68.344 148.88 66.82 149.252 65.248L148.376 65.068ZM148.472 62.236L148.124 63.076H153.872V62.236H148.472ZM150.332 62.584V69.868C150.332 70.024 150.284 70.072 150.128 70.072C149.96 70.072 149.444 70.084 148.88 70.06C149.012 70.324 149.144 70.72 149.204 70.972C149.948 70.972 150.464 70.948 150.788 70.792C151.124 70.648 151.232 70.384 151.232 69.868V62.584H150.332ZM152.096 65.248C152.756 66.508 153.356 68.2 153.548 69.304L154.4 69.016C154.196 67.9 153.596 66.244 152.9 64.984L152.096 65.248ZM153.608 62.236V62.368C153.488 63.16 153.332 64.168 153.2 64.768L153.98 64.912C154.136 64.264 154.34 63.232 154.508 62.344L153.884 62.212L153.728 62.236H153.608ZM146.168 59.968C145.496 61.792 144.368 63.592 143.18 64.756C143.348 64.96 143.6 65.44 143.696 65.644C144.992 64.3 146.228 62.272 147.02 60.232L146.168 59.968ZM144.92 63.064V70.948H145.784V62.224L145.76 62.212L144.92 63.064ZM156.572 61.852V62.656H159.38V68.884H156.572V69.7H160.22V61.852H156.572ZM156.032 61.852V70.66H156.872V61.852H156.032ZM156.512 65.188V65.992H159.824V65.188H156.512ZM157.868 59.896C157.772 60.52 157.544 61.432 157.34 62.008L158.06 62.188C158.3 61.648 158.6 60.82 158.84 60.076L157.868 59.896ZM161.924 61.816V62.656H165.608V61.816H161.924ZM165.296 61.816V62.008C165.128 67.3 164.936 69.292 164.54 69.724C164.408 69.88 164.264 69.916 164.024 69.916C163.748 69.916 163.028 69.904 162.248 69.844C162.416 70.084 162.524 70.456 162.548 70.72C163.22 70.756 163.928 70.78 164.336 70.732C164.756 70.696 165.032 70.588 165.296 70.24C165.776 69.652 165.944 67.792 166.136 62.284C166.136 62.152 166.136 61.816 166.136 61.816H165.296ZM162.176 59.872C161.792 61.54 161.132 63.196 160.316 64.252C160.532 64.372 160.904 64.624 161.06 64.768C161.888 63.628 162.596 61.864 163.04 60.076L162.176 59.872ZM161.624 64.936C162.284 65.812 163.088 67 163.448 67.732L164.216 67.252C163.832 66.544 163.004 65.38 162.32 64.528L161.624 64.936ZM172.898 63.4545C172.849 62.9687 172.635 62.5824 172.254 62.2955C171.874 62.0085 171.395 61.8651 170.818 61.8651C170.412 61.8651 170.054 61.9347 169.744 62.0739C169.438 62.2131 169.196 62.4062 169.02 62.6534C168.847 62.8977 168.76 63.1761 168.76 63.4886C168.76 63.7188 168.81 63.9205 168.909 64.0938C169.009 64.267 169.142 64.4162 169.31 64.5412C169.48 64.6634 169.668 64.7685 169.872 64.8565C170.08 64.9446 170.288 65.0185 170.499 65.0781L171.419 65.3423C171.697 65.419 171.976 65.517 172.254 65.6364C172.533 65.7557 172.787 65.9062 173.017 66.0881C173.25 66.267 173.436 66.4872 173.575 66.7486C173.717 67.0071 173.788 67.3182 173.788 67.6818C173.788 68.1477 173.668 68.5668 173.426 68.9389C173.185 69.3111 172.838 69.6065 172.386 69.8253C171.935 70.0412 171.393 70.1491 170.763 70.1491C170.169 70.1491 169.653 70.0511 169.216 69.8551C168.778 69.6562 168.435 69.3821 168.185 69.0327C167.935 68.6832 167.794 68.2784 167.763 67.8182H168.581C168.609 68.1619 168.723 68.4531 168.922 68.6918C169.121 68.9304 169.379 69.1122 169.697 69.2372C170.016 69.3594 170.371 69.4205 170.763 69.4205C171.197 69.4205 171.584 69.348 171.922 69.2031C172.263 69.0554 172.53 68.8509 172.723 68.5895C172.919 68.3253 173.017 68.0185 173.017 67.669C173.017 67.3736 172.94 67.1264 172.787 66.9276C172.634 66.7259 172.419 66.5568 172.143 66.4205C171.871 66.2841 171.554 66.1634 171.193 66.0582L170.149 65.7514C169.464 65.5469 168.933 65.2642 168.555 64.9034C168.178 64.5426 167.989 64.0824 167.989 63.5227C167.989 63.054 168.114 62.642 168.364 62.2869C168.616 61.929 168.957 61.6506 169.386 61.4517C169.818 61.25 170.303 61.1491 170.839 61.1491C171.382 61.1491 171.862 61.2486 172.28 61.4474C172.697 61.6463 173.028 61.9205 173.273 62.2699C173.52 62.6165 173.652 63.0114 173.669 63.4545H172.898ZM178.126 63.4545V64.1151H175.003V63.4545H178.126ZM175.979 61.8864H176.741V68.2912C176.741 68.5639 176.788 68.7784 176.882 68.9347C176.976 69.0881 177.098 69.1974 177.249 69.2628C177.399 69.3253 177.56 69.3565 177.73 69.3565C177.83 69.3565 177.915 69.3509 177.986 69.3395C178.057 69.3253 178.119 69.3111 178.173 69.2969L178.335 69.983C178.261 70.0114 178.17 70.0369 178.062 70.0597C177.955 70.0852 177.821 70.098 177.662 70.098C177.384 70.098 177.115 70.0369 176.857 69.9148C176.601 69.7926 176.391 69.6108 176.226 69.3693C176.061 69.1278 175.979 68.8281 175.979 68.4702V61.8864ZM182.425 70.1364C181.814 70.1364 181.286 69.9943 180.84 69.7102C180.394 69.4233 180.049 69.027 179.804 68.5213C179.563 68.0128 179.442 67.4276 179.442 66.7656C179.442 66.1065 179.563 65.5213 179.804 65.0099C180.049 64.4957 180.385 64.0937 180.814 63.804C181.246 63.5114 181.745 63.3651 182.31 63.3651C182.665 63.3651 183.007 63.4304 183.337 63.5611C183.667 63.6889 183.962 63.8864 184.223 64.1534C184.488 64.4176 184.696 64.7514 184.85 65.1548C185.003 65.5554 185.08 66.0298 185.08 66.5781V66.9531H179.966V66.2841H184.304C184.304 65.8636 184.219 65.4858 184.049 65.1506C183.881 64.8125 183.647 64.5455 183.346 64.3494C183.047 64.1534 182.702 64.0554 182.31 64.0554C181.895 64.0554 181.53 64.1662 181.215 64.3878C180.9 64.6094 180.652 64.902 180.473 65.2656C180.297 65.6293 180.208 66.027 180.205 66.4588V66.8594C180.205 67.3793 180.294 67.8338 180.473 68.223C180.655 68.6094 180.912 68.9091 181.245 69.1222C181.577 69.3352 181.971 69.4418 182.425 69.4418C182.735 69.4418 183.006 69.3935 183.239 69.2969C183.475 69.2003 183.672 69.071 183.831 68.9091C183.993 68.7443 184.115 68.5639 184.198 68.3679L184.918 68.6023C184.819 68.8778 184.655 69.1321 184.428 69.3651C184.203 69.598 183.922 69.7855 183.584 69.9276C183.249 70.0668 182.863 70.1364 182.425 70.1364ZM188.58 70.1491C188.185 70.1491 187.824 70.0724 187.497 69.919C187.17 69.7628 186.911 69.5384 186.717 69.2457C186.524 68.9503 186.428 68.5923 186.428 68.1719C186.428 67.848 186.489 67.5753 186.611 67.3537C186.733 67.1321 186.906 66.9503 187.131 66.8082C187.355 66.6662 187.621 66.554 187.928 66.4716C188.234 66.3892 188.572 66.3253 188.942 66.2798C189.308 66.2344 189.618 66.1946 189.871 66.1605C190.126 66.1264 190.321 66.0724 190.455 65.9986C190.588 65.9247 190.655 65.8054 190.655 65.6406V65.4872C190.655 65.0412 190.521 64.6903 190.254 64.4347C189.99 64.1761 189.609 64.0469 189.112 64.0469C188.641 64.0469 188.256 64.1506 187.957 64.358C187.662 64.5653 187.455 64.8097 187.335 65.0909L186.615 64.831C186.763 64.473 186.967 64.1875 187.229 63.9744C187.49 63.7585 187.783 63.6037 188.107 63.5099C188.43 63.4134 188.759 63.3651 189.091 63.3651C189.341 63.3651 189.601 63.3977 189.871 63.4631C190.143 63.5284 190.396 63.642 190.629 63.804C190.862 63.9631 191.051 64.1861 191.196 64.473C191.341 64.7571 191.413 65.1179 191.413 65.5554V70H190.655V68.9645H190.608C190.517 69.1577 190.382 69.3452 190.203 69.527C190.024 69.7088 189.8 69.858 189.53 69.9744C189.26 70.0909 188.943 70.1491 188.58 70.1491ZM188.682 69.4545C189.085 69.4545 189.435 69.3651 189.73 69.1861C190.026 69.0071 190.253 68.7699 190.412 68.4744C190.574 68.1761 190.655 67.848 190.655 67.4901V66.544C190.598 66.598 190.503 66.6463 190.369 66.6889C190.239 66.7315 190.087 66.7699 189.913 66.804C189.743 66.8352 189.572 66.8622 189.402 66.8849C189.232 66.9077 189.078 66.9276 188.942 66.9446C188.572 66.9901 188.257 67.0611 187.996 67.1577C187.734 67.2543 187.534 67.3878 187.395 67.5582C187.256 67.7259 187.186 67.9418 187.186 68.206C187.186 68.6037 187.328 68.9119 187.612 69.1307C187.896 69.3466 188.253 69.4545 188.682 69.4545ZM193.431 70V63.4545H194.168V64.4602H194.237C194.367 64.1222 194.585 63.8565 194.888 63.6634C195.195 63.4673 195.563 63.3693 195.992 63.3693C196.444 63.3693 196.815 63.4759 197.104 63.6889C197.397 63.8991 197.616 64.1889 197.761 64.5582H197.816C197.964 64.1946 198.204 63.9062 198.536 63.6932C198.871 63.4773 199.278 63.3693 199.755 63.3693C200.363 63.3693 200.843 63.5611 201.195 63.9446C201.548 64.3253 201.724 64.8821 201.724 65.6151V70H200.965V65.6151C200.965 65.098 200.833 64.7102 200.569 64.4517C200.305 64.1932 199.957 64.0639 199.525 64.0639C199.025 64.0639 198.64 64.2173 198.37 64.5241C198.1 64.831 197.965 65.2202 197.965 65.6918V70H197.19V65.5469C197.19 65.1037 197.066 64.7457 196.819 64.473C196.572 64.2003 196.224 64.0639 195.775 64.0639C195.474 64.0639 195.202 64.1378 194.961 64.2855C194.722 64.4332 194.533 64.6392 194.394 64.9034C194.258 65.1648 194.19 65.4659 194.19 65.8068V70H193.431ZM208.682 60.892C209.786 62.464 211.994 64.36 213.95 65.488C214.118 65.224 214.334 64.912 214.562 64.684C212.594 63.676 210.398 61.816 209.09 59.956H208.154C207.206 61.576 205.118 63.604 202.934 64.84C203.138 65.032 203.39 65.356 203.522 65.56C205.658 64.312 207.686 62.404 208.682 60.892ZM208.202 63.892V70.972H209.15V63.892H208.202ZM220.106 60.292C220.022 61.888 220.022 67.66 215.126 70.156C215.402 70.36 215.702 70.636 215.858 70.864C220.826 68.164 221.006 62.176 221.102 60.292H220.106ZM221.066 60.532L220.202 60.616C220.286 61.72 220.622 68.428 225.71 70.864C225.854 70.612 226.13 70.312 226.394 70.108C221.45 67.84 221.102 61.468 221.066 60.532ZM227.738 60.988C228.626 61.312 229.718 61.864 230.258 62.296L230.726 61.588C230.174 61.168 229.07 60.652 228.206 60.364L227.738 60.988ZM227.318 64.06L227.582 64.888C228.542 64.564 229.766 64.168 230.942 63.772L230.798 62.98C229.49 63.4 228.194 63.808 227.318 64.06ZM232.538 59.968C232.226 60.808 231.602 61.828 230.618 62.56C230.822 62.668 231.11 62.92 231.254 63.124C232.334 62.248 232.982 61.144 233.39 60.088L232.538 59.968ZM232.55 61.036L232.046 61.744H237.098V61.036H232.55ZM236.894 61.036V61.156C236.678 61.732 236.354 62.392 236.09 62.812L236.87 63.04C237.182 62.56 237.53 61.84 237.842 61.18L237.194 61L237.038 61.036H236.894ZM228.914 65.548V68.896H229.802V66.376H235.754V68.812H236.678V65.548H228.914ZM232.394 66.736C232.046 68.716 231.134 69.784 227.318 70.252C227.474 70.432 227.666 70.78 227.726 70.984C231.77 70.42 232.874 69.124 233.282 66.736H232.394ZM232.91 69.112C234.422 69.592 236.402 70.384 237.422 70.924L237.95 70.168C236.894 69.652 234.89 68.896 233.414 68.452L232.91 69.112ZM234.038 61.396C233.714 62.788 232.97 64.048 230.63 64.672C230.81 64.816 231.026 65.128 231.122 65.332C233.654 64.564 234.554 63.148 234.938 61.396H234.038ZM234.566 62.212L233.894 62.404C234.578 63.748 235.946 64.78 237.578 65.248C237.698 65.02 237.926 64.696 238.118 64.528C236.546 64.192 235.19 63.328 234.566 62.212ZM241.226 59.968V70.948H242.066V59.968H241.226ZM239.294 63.952V64.804H244.034V63.952H239.294ZM241.094 64.396C240.71 65.8 239.87 67.624 239.102 68.548C239.246 68.788 239.462 69.172 239.558 69.436C240.362 68.344 241.214 66.268 241.634 64.636L241.094 64.396ZM242.042 64.96L241.598 65.332C241.994 65.848 242.978 67.42 243.278 68.068L243.878 67.348C243.602 66.952 242.378 65.32 242.042 64.96ZM239.378 60.856C239.69 61.696 239.966 62.812 240.026 63.532L240.734 63.34C240.65 62.62 240.374 61.528 240.038 60.688L239.378 60.856ZM243.254 60.64C243.086 61.456 242.726 62.656 242.462 63.376L243.038 63.556C243.362 62.884 243.734 61.756 244.046 60.844L243.254 60.64ZM247.91 59.932V70.96H248.762V59.932H247.91ZM244.01 67.564L244.154 68.404L250.322 67.288L250.178 66.46L244.01 67.564ZM244.91 61.396C245.606 61.828 246.434 62.476 246.818 62.944L247.298 62.248C246.902 61.804 246.074 61.192 245.378 60.784L244.91 61.396ZM244.298 64.42C245.018 64.816 245.882 65.428 246.302 65.86L246.758 65.152C246.326 64.72 245.438 64.156 244.718 63.784L244.298 64.42ZM251.354 64.348V65.236H262.118V64.348H251.354ZM256.562 61.648V62.524H260.822V61.648H256.562ZM256.022 59.92V64.768H256.958V59.92H256.022ZM256.022 64.948V70.96H256.958V64.948H256.022ZM256.694 66.952C258.05 67.336 259.862 67.996 260.786 68.452L261.254 67.648C260.282 67.18 258.458 66.58 257.138 66.232L256.694 66.952ZM265.358 63.028V63.964H273.566V63.028H265.358ZM269.234 59.944V63.46H270.182V59.944H269.234ZM264.878 60.232V64.24C264.878 66.364 264.71 68.584 263.186 70.288C263.402 70.444 263.738 70.78 263.882 70.984C265.61 69.1 265.814 66.628 265.814 64.24V60.232H264.878ZM265.322 65.872V66.808H270.734V70.972H271.706V65.872H265.322Z" fill="#454343"/>
<path d="M279.329 80L292.344 64.4233H286.941L293.026 56H283.857L279 69.0055H283.711L279.329 80Z" fill="#EAC814"/>
<defs>
<linearGradient id="paint0_linear_5_2" x1="5" y1="46.1364" x2="280" y2="46.1364" gradientUnits="userSpaceOnUse">
<stop stop-color="#6FCE4E"/>
<stop offset="0.9999" stop-color="#3CB0D5" stop-opacity="0.75"/>
<stop offset="1" stop-color="#7DA33F" stop-opacity="0"/>
</linearGradient>
</defs>
</svg>
