<svg width="310" height="82" viewBox="0 0 310 82" fill="none" xmlns="http://www.w3.org/2000/svg">
<path d="M26.9716 21.1307C26.8352 19.7557 26.25 18.6875 25.2159 17.9261C24.1818 17.1648 22.7784 16.7841 21.0057 16.7841C19.8011 16.7841 18.7841 16.9545 17.9545 17.2955C17.125 17.625 16.4886 18.0852 16.0455 18.6761C15.6136 19.267 15.3977 19.9375 15.3977 20.6875C15.375 21.3125 15.5057 21.858 15.7898 22.3239C16.0852 22.7898 16.4886 23.1932 17 23.5341C17.5114 23.8636 18.1023 24.1534 18.7727 24.4034C19.4432 24.642 20.1591 24.8466 20.9205 25.017L24.0568 25.767C25.5795 26.108 26.9773 26.5625 28.25 27.1307C29.5227 27.6989 30.625 28.3977 31.5568 29.2273C32.4886 30.0568 33.2102 31.0341 33.7216 32.1591C34.2443 33.2841 34.5114 34.5739 34.5227 36.0284C34.5114 38.1648 33.9659 40.017 32.8864 41.5852C31.8182 43.142 30.2727 44.3523 28.25 45.2159C26.2386 46.0682 23.8125 46.4943 20.9716 46.4943C18.1534 46.4943 15.6989 46.0625 13.608 45.1989C11.5284 44.3352 9.90341 43.0568 8.73295 41.3636C7.57386 39.6591 6.96591 37.5511 6.90909 35.0398H14.0511C14.1307 36.2102 14.4659 37.1875 15.0568 37.9716C15.6591 38.7443 16.4602 39.3295 17.4602 39.7273C18.4716 40.1136 19.6136 40.3068 20.8864 40.3068C22.1364 40.3068 23.2216 40.125 24.142 39.7614C25.0739 39.3977 25.7955 38.892 26.3068 38.2443C26.8182 37.5966 27.0739 36.8523 27.0739 36.0114C27.0739 35.2273 26.8409 34.5682 26.375 34.0341C25.9205 33.5 25.25 33.0455 24.3636 32.6705C23.4886 32.2955 22.4148 31.9545 21.142 31.6477L17.3409 30.6932C14.3977 29.9773 12.0739 28.858 10.3693 27.3352C8.66477 25.8125 7.81818 23.7614 7.82955 21.1818C7.81818 19.0682 8.38068 17.2216 9.51705 15.642C10.6648 14.0625 12.2386 12.8295 14.2386 11.9432C16.2386 11.0568 18.5114 10.6136 21.0568 10.6136C23.6477 10.6136 25.9091 11.0568 27.8409 11.9432C29.7841 12.8295 31.2955 14.0625 32.375 15.642C33.4545 17.2216 34.0114 19.0511 34.0455 21.1307H26.9716ZM53.277 19.8182V25.2727H37.5099V19.8182H53.277ZM41.0895 13.5455H48.3509V37.9545C48.3509 38.625 48.4531 39.1477 48.6577 39.5227C48.8622 39.8864 49.1463 40.142 49.5099 40.2898C49.8849 40.4375 50.3168 40.5114 50.8054 40.5114C51.1463 40.5114 51.4872 40.483 51.8281 40.4261C52.169 40.358 52.4304 40.3068 52.6122 40.2727L53.7543 45.6761C53.3906 45.7898 52.8793 45.9205 52.2202 46.0682C51.5611 46.2273 50.7599 46.3239 49.8168 46.358C48.0668 46.4261 46.5327 46.1932 45.2145 45.6591C43.9077 45.125 42.8906 44.2955 42.1634 43.1705C41.4361 42.0455 41.0781 40.625 41.0895 38.9091V13.5455ZM69.6577 46.5114C66.9645 46.5114 64.6463 45.9659 62.7031 44.875C60.7713 43.7727 59.2827 42.2159 58.2372 40.2045C57.1918 38.1818 56.669 35.7898 56.669 33.0284C56.669 30.3352 57.1918 27.9716 58.2372 25.9375C59.2827 23.9034 60.7543 22.3182 62.652 21.1818C64.5611 20.0455 66.7997 19.4773 69.3679 19.4773C71.0952 19.4773 72.7031 19.7557 74.1918 20.3125C75.6918 20.858 76.9986 21.6818 78.1122 22.7841C79.2372 23.8864 80.1122 25.2727 80.7372 26.9432C81.3622 28.6023 81.6747 30.5455 81.6747 32.7727V34.767H59.5668V30.267H74.8395C74.8395 29.2216 74.6122 28.2955 74.1577 27.4886C73.7031 26.6818 73.0724 26.0511 72.2656 25.5966C71.4702 25.1307 70.544 24.8977 69.4872 24.8977C68.3849 24.8977 67.4077 25.1534 66.5554 25.6648C65.7145 26.1648 65.0554 26.8409 64.5781 27.6932C64.1009 28.5341 63.8565 29.4716 63.8452 30.5057V34.7841C63.8452 36.0795 64.0838 37.1989 64.5611 38.142C65.0497 39.0852 65.7372 39.8125 66.6236 40.3239C67.5099 40.8352 68.5611 41.0909 69.777 41.0909C70.5838 41.0909 71.3224 40.9773 71.9929 40.75C72.6634 40.5227 73.2372 40.1818 73.7145 39.7273C74.1918 39.2727 74.5554 38.7159 74.8054 38.0568L81.5213 38.5C81.1804 40.1136 80.4815 41.5227 79.4247 42.7273C78.3793 43.9205 77.027 44.8523 75.3679 45.5227C73.7202 46.1818 71.8168 46.5114 69.6577 46.5114ZM93.8793 46.4943C92.2088 46.4943 90.7202 46.2045 89.4134 45.625C88.1065 45.0341 87.0724 44.1648 86.3111 43.017C85.5611 41.858 85.1861 40.4148 85.1861 38.6875C85.1861 37.233 85.4531 36.0114 85.9872 35.0227C86.5213 34.0341 87.2486 33.2386 88.169 32.6364C89.0895 32.0341 90.1349 31.5795 91.3054 31.2727C92.4872 30.9659 93.7259 30.75 95.0213 30.625C96.544 30.4659 97.7713 30.3182 98.7031 30.1818C99.6349 30.0341 100.311 29.8182 100.732 29.5341C101.152 29.25 101.362 28.8295 101.362 28.2727V28.1705C101.362 27.0909 101.021 26.2557 100.339 25.6648C99.669 25.0739 98.7145 24.7784 97.4759 24.7784C96.169 24.7784 95.1293 25.0682 94.3565 25.6477C93.5838 26.2159 93.0724 26.9318 92.8224 27.7955L86.1065 27.25C86.4474 25.6591 87.1179 24.2841 88.1179 23.125C89.1179 21.9545 90.4077 21.0568 91.9872 20.4318C93.5781 19.7955 95.419 19.4773 97.5099 19.4773C98.9645 19.4773 100.357 19.6477 101.686 19.9886C103.027 20.3295 104.214 20.858 105.249 21.5739C106.294 22.2898 107.118 23.2102 107.72 24.3352C108.322 25.4489 108.624 26.7841 108.624 28.3409V46H101.737V42.3693H101.533C101.112 43.1875 100.55 43.9091 99.8452 44.5341C99.1406 45.1477 98.294 45.6307 97.3054 45.983C96.3168 46.3239 95.1747 46.4943 93.8793 46.4943ZM95.9588 41.483C97.027 41.483 97.9702 41.2727 98.7884 40.8523C99.6065 40.4205 100.249 39.8409 100.714 39.1136C101.18 38.3864 101.413 37.5625 101.413 36.642V33.8636C101.186 34.0114 100.874 34.1477 100.476 34.2727C100.089 34.3864 99.652 34.4943 99.1634 34.5966C98.6747 34.6875 98.1861 34.7727 97.6974 34.8523C97.2088 34.9205 96.7656 34.983 96.3679 35.0398C95.5156 35.1648 94.7713 35.3636 94.1349 35.6364C93.4986 35.9091 93.0043 36.2784 92.652 36.7443C92.2997 37.1989 92.1236 37.767 92.1236 38.4489C92.1236 39.4375 92.4815 40.1932 93.1974 40.7159C93.9247 41.2273 94.8452 41.483 95.9588 41.483ZM114.257 46V19.8182H121.178V24.4375H121.484C122.03 22.9034 122.939 21.6932 124.212 20.8068C125.484 19.9205 127.007 19.4773 128.78 19.4773C130.575 19.4773 132.104 19.9261 133.365 20.8239C134.626 21.7102 135.467 22.9148 135.888 24.4375H136.161C136.695 22.9375 137.661 21.7386 139.058 20.8409C140.467 19.9318 142.132 19.4773 144.053 19.4773C146.496 19.4773 148.479 20.2557 150.001 21.8125C151.536 23.358 152.303 25.5511 152.303 28.392V46H145.058V29.8239C145.058 28.3693 144.672 27.2784 143.899 26.5511C143.126 25.8239 142.161 25.4602 141.001 25.4602C139.683 25.4602 138.655 25.8807 137.916 26.7216C137.178 27.5511 136.808 28.6477 136.808 30.0114V46H129.768V29.6705C129.768 28.3864 129.399 27.3636 128.661 26.6023C127.933 25.8409 126.973 25.4602 125.78 25.4602C124.973 25.4602 124.246 25.6648 123.598 26.0739C122.962 26.4716 122.456 27.0341 122.081 27.7614C121.706 28.4773 121.518 29.3182 121.518 30.2841V46H114.257ZM200.085 23.3125H192.619C192.483 22.3466 192.205 21.4886 191.784 20.7386C191.364 19.9773 190.824 19.3295 190.165 18.7955C189.506 18.2614 188.744 17.8523 187.881 17.5682C187.028 17.2841 186.102 17.142 185.102 17.142C183.295 17.142 181.722 17.5909 180.381 18.4886C179.04 19.375 178 20.6705 177.261 22.375C176.523 24.0682 176.153 26.125 176.153 28.5455C176.153 31.0341 176.523 33.125 177.261 34.8182C178.011 36.5114 179.057 37.7898 180.398 38.6534C181.739 39.517 183.29 39.9489 185.051 39.9489C186.04 39.9489 186.955 39.8182 187.795 39.5568C188.648 39.2955 189.403 38.9148 190.062 38.4148C190.722 37.9034 191.267 37.2841 191.699 36.5568C192.142 35.8295 192.449 35 192.619 34.0682L200.085 34.1023C199.892 35.7045 199.409 37.25 198.636 38.7386C197.875 40.2159 196.847 41.5398 195.551 42.7102C194.267 43.8693 192.733 44.7898 190.949 45.4716C189.176 46.142 187.17 46.4773 184.932 46.4773C181.818 46.4773 179.034 45.7727 176.58 44.3636C174.136 42.9545 172.205 40.9148 170.784 38.2443C169.375 35.5739 168.67 32.3409 168.67 28.5455C168.67 24.7386 169.386 21.5 170.818 18.8295C172.25 16.1591 174.193 14.125 176.648 12.7273C179.102 11.3182 181.864 10.6136 184.932 10.6136C186.955 10.6136 188.83 10.8977 190.557 11.4659C192.295 12.0341 193.835 12.8636 195.176 13.9545C196.517 15.0341 197.608 16.358 198.449 17.9261C199.301 19.4943 199.847 21.2898 200.085 23.3125ZM212.707 46.4943C211.037 46.4943 209.548 46.2045 208.241 45.625C206.935 45.0341 205.901 44.1648 205.139 43.017C204.389 41.858 204.014 40.4148 204.014 38.6875C204.014 37.233 204.281 36.0114 204.815 35.0227C205.349 34.0341 206.077 33.2386 206.997 32.6364C207.918 32.0341 208.963 31.5795 210.134 31.2727C211.315 30.9659 212.554 30.75 213.849 30.625C215.372 30.4659 216.599 30.3182 217.531 30.1818C218.463 30.0341 219.139 29.8182 219.56 29.5341C219.98 29.25 220.19 28.8295 220.19 28.2727V28.1705C220.19 27.0909 219.849 26.2557 219.168 25.6648C218.497 25.0739 217.543 24.7784 216.304 24.7784C214.997 24.7784 213.957 25.0682 213.185 25.6477C212.412 26.2159 211.901 26.9318 211.651 27.7955L204.935 27.25C205.276 25.6591 205.946 24.2841 206.946 23.125C207.946 21.9545 209.236 21.0568 210.815 20.4318C212.406 19.7955 214.247 19.4773 216.338 19.4773C217.793 19.4773 219.185 19.6477 220.514 19.9886C221.855 20.3295 223.043 20.858 224.077 21.5739C225.122 22.2898 225.946 23.2102 226.548 24.3352C227.151 25.4489 227.452 26.7841 227.452 28.3409V46H220.565V42.3693H220.361C219.94 43.1875 219.378 43.9091 218.673 44.5341C217.969 45.1477 217.122 45.6307 216.134 45.983C215.145 46.3239 214.003 46.4943 212.707 46.4943ZM214.787 41.483C215.855 41.483 216.798 41.2727 217.616 40.8523C218.435 40.4205 219.077 39.8409 219.543 39.1136C220.009 38.3864 220.241 37.5625 220.241 36.642V33.8636C220.014 34.0114 219.702 34.1477 219.304 34.2727C218.918 34.3864 218.48 34.4943 217.991 34.5966C217.503 34.6875 217.014 34.7727 216.526 34.8523C216.037 34.9205 215.594 34.983 215.196 35.0398C214.344 35.1648 213.599 35.3636 212.963 35.6364C212.327 35.9091 211.832 36.2784 211.48 36.7443C211.128 37.1989 210.952 37.767 210.952 38.4489C210.952 39.4375 211.31 40.1932 212.026 40.7159C212.753 41.2273 213.673 41.483 214.787 41.483ZM233.085 46V19.8182H240.125V24.3864H240.398C240.875 22.7614 241.676 21.5341 242.801 20.7045C243.926 19.8636 245.222 19.4432 246.688 19.4432C247.051 19.4432 247.443 19.4659 247.864 19.5114C248.284 19.5568 248.653 19.6193 248.972 19.6989V26.142C248.631 26.0398 248.159 25.9489 247.557 25.8693C246.955 25.7898 246.403 25.75 245.903 25.75C244.835 25.75 243.881 25.983 243.04 26.4489C242.21 26.9034 241.551 27.5398 241.062 28.358C240.585 29.1761 240.347 30.1193 240.347 31.1875V46H233.085ZM261.155 46.4261C259.166 46.4261 257.365 45.9148 255.751 44.892C254.149 43.858 252.876 42.3409 251.933 40.3409C251.001 38.3295 250.536 35.8636 250.536 32.9432C250.536 29.9432 251.018 27.4489 251.984 25.4602C252.95 23.4602 254.234 21.9659 255.837 20.9773C257.45 19.9773 259.217 19.4773 261.138 19.4773C262.604 19.4773 263.825 19.7273 264.803 20.2273C265.791 20.7159 266.587 21.3295 267.189 22.0682C267.803 22.7955 268.268 23.5114 268.587 24.2159H268.808V11.0909H276.053V46H268.893V41.8068H268.587C268.246 42.5341 267.763 43.2557 267.138 43.9716C266.524 44.6761 265.723 45.2614 264.734 45.7273C263.757 46.1932 262.564 46.4261 261.155 46.4261ZM263.456 40.6477C264.626 40.6477 265.615 40.3295 266.422 39.6932C267.24 39.0455 267.865 38.142 268.297 36.983C268.74 35.8239 268.962 34.4659 268.962 32.9091C268.962 31.3523 268.746 30 268.314 28.8523C267.882 27.7045 267.257 26.8182 266.439 26.1932C265.621 25.5682 264.626 25.2557 263.456 25.2557C262.263 25.2557 261.257 25.5795 260.439 26.2273C259.621 26.875 259.001 27.7727 258.581 28.9205C258.161 30.0682 257.95 31.3977 257.95 32.9091C257.95 34.4318 258.161 35.7784 258.581 36.9489C259.013 38.108 259.632 39.017 260.439 39.6761C261.257 40.3239 262.263 40.6477 263.456 40.6477Z" fill="url(#paint0_linear_2_14)"/>
<path d="M92.1974 64C92.1179 63.7102 92.0014 63.4389 91.848 63.1861C91.6946 62.9304 91.5043 62.7074 91.277 62.517C91.0526 62.3239 90.7926 62.1733 90.4972 62.0653C90.2045 61.9574 89.8778 61.9034 89.517 61.9034C88.9489 61.9034 88.4403 62.0511 87.9915 62.3466C87.5426 62.642 87.1875 63.0682 86.9261 63.625C86.6676 64.1818 86.5384 64.8523 86.5384 65.6364C86.5384 66.4176 86.669 67.0866 86.9304 67.6435C87.1918 68.2003 87.5497 68.6278 88.0043 68.9261C88.4616 69.2216 88.9844 69.3693 89.5724 69.3693C90.1094 69.3693 90.5838 69.25 90.9957 69.0114C91.4077 68.7727 91.7287 68.4318 91.9588 67.9886C92.1918 67.5455 92.3054 67.0185 92.2997 66.4077L92.5554 66.4886H89.7599V65.7727H93.0753V66.4886C93.0753 67.233 92.9247 67.8764 92.6236 68.419C92.3224 68.9616 91.9091 69.3807 91.3835 69.6761C90.858 69.9716 90.2543 70.1193 89.5724 70.1193C88.8111 70.1193 88.1449 69.9361 87.5739 69.5696C87.0028 69.2003 86.5582 68.6804 86.2401 68.0099C85.9247 67.3366 85.767 66.5455 85.767 65.6364C85.767 64.9517 85.858 64.3338 86.0398 63.7827C86.2216 63.2315 86.4787 62.7599 86.8111 62.3679C87.1463 61.9759 87.5426 61.6761 88 61.4688C88.4574 61.2585 88.9631 61.1534 89.517 61.1534C89.9943 61.1534 90.4304 61.2287 90.8253 61.3793C91.223 61.5298 91.5724 61.7372 91.8736 62.0014C92.1776 62.2628 92.4261 62.5653 92.6193 62.9091C92.8153 63.25 92.9474 63.6136 93.0156 64H92.1974ZM97.5423 70.1364C96.9315 70.1364 96.4031 69.9943 95.957 69.7102C95.511 69.4233 95.1658 69.027 94.9215 68.5213C94.68 68.0128 94.5593 67.4276 94.5593 66.7656C94.5593 66.1065 94.68 65.5213 94.9215 65.0099C95.1658 64.4957 95.5025 64.0937 95.9315 63.804C96.3633 63.5114 96.8619 63.3651 97.4272 63.3651C97.7823 63.3651 98.1246 63.4304 98.4542 63.5611C98.7837 63.6889 99.0792 63.8864 99.3406 64.1534C99.6048 64.4176 99.8136 64.7514 99.967 65.1548C100.12 65.5554 100.197 66.0298 100.197 66.5781V66.9531H95.0835V66.2841H99.4215C99.4215 65.8636 99.3363 65.4858 99.1658 65.1506C98.9982 64.8125 98.7638 64.5455 98.4627 64.3494C98.1644 64.1534 97.8192 64.0554 97.4272 64.0554C97.0124 64.0554 96.6474 64.1662 96.332 64.3878C96.0167 64.6094 95.7695 64.902 95.5906 65.2656C95.4144 65.6293 95.3249 66.027 95.3221 66.4588V66.8594C95.3221 67.3793 95.4116 67.8338 95.5906 68.223C95.7724 68.6094 96.0295 68.9091 96.3619 69.1222C96.6942 69.3352 97.0877 69.4418 97.5423 69.4418C97.8519 69.4418 98.1232 69.3935 98.3562 69.2969C98.592 69.2003 98.7894 69.071 98.9485 68.9091C99.1104 68.7443 99.2326 68.5639 99.315 68.3679L100.035 68.6023C99.9357 68.8778 99.7724 69.1321 99.5451 69.3651C99.3207 69.598 99.0394 69.7855 98.7013 69.9276C98.3661 70.0668 97.9798 70.1364 97.5423 70.1364ZM102.627 65.9091V70H101.869V63.4545H102.606V64.4815H102.674C102.827 64.1463 103.066 63.8778 103.39 63.6761C103.717 63.4716 104.12 63.3693 104.6 63.3693C105.04 63.3693 105.427 63.4616 105.759 63.6463C106.094 63.8281 106.354 64.0966 106.539 64.4517C106.727 64.8068 106.82 65.2429 106.82 65.7599V70H106.062V65.8068C106.062 65.2699 105.911 64.8452 105.61 64.5327C105.312 64.2202 104.911 64.0639 104.408 64.0639C104.065 64.0639 103.759 64.1378 103.492 64.2855C103.225 64.4332 103.013 64.6463 102.857 64.9247C102.704 65.2003 102.627 65.5284 102.627 65.9091ZM111.464 70.1364C110.853 70.1364 110.325 69.9943 109.879 69.7102C109.433 69.4233 109.088 69.027 108.843 68.5213C108.602 68.0128 108.481 67.4276 108.481 66.7656C108.481 66.1065 108.602 65.5213 108.843 65.0099C109.088 64.4957 109.424 64.0937 109.853 63.804C110.285 63.5114 110.784 63.3651 111.349 63.3651C111.704 63.3651 112.047 63.4304 112.376 63.5611C112.706 63.6889 113.001 63.8864 113.262 64.1534C113.527 64.4176 113.735 64.7514 113.889 65.1548C114.042 65.5554 114.119 66.0298 114.119 66.5781V66.9531H109.005V66.2841H113.343C113.343 65.8636 113.258 65.4858 113.088 65.1506C112.92 64.8125 112.686 64.5455 112.385 64.3494C112.086 64.1534 111.741 64.0554 111.349 64.0554C110.934 64.0554 110.569 64.1662 110.254 64.3878C109.939 64.6094 109.691 64.902 109.512 65.2656C109.336 65.6293 109.247 66.027 109.244 66.4588V66.8594C109.244 67.3793 109.333 67.8338 109.512 68.223C109.694 68.6094 109.951 68.9091 110.284 69.1222C110.616 69.3352 111.01 69.4418 111.464 69.4418C111.774 69.4418 112.045 69.3935 112.278 69.2969C112.514 69.2003 112.711 69.071 112.87 68.9091C113.032 68.7443 113.154 68.5639 113.237 68.3679L113.957 68.6023C113.858 68.8778 113.694 69.1321 113.467 69.3651C113.243 69.598 112.961 69.7855 112.623 69.9276C112.288 70.0668 111.902 70.1364 111.464 70.1364ZM115.79 70V63.4545H116.528V64.4602H116.583C116.714 64.1307 116.941 63.8651 117.265 63.6634C117.592 63.4588 117.961 63.3565 118.373 63.3565C118.435 63.3565 118.505 63.358 118.582 63.3608C118.658 63.3636 118.722 63.3665 118.773 63.3693V64.1406C118.739 64.1349 118.68 64.1264 118.594 64.1151C118.509 64.1037 118.417 64.098 118.317 64.098C117.977 64.098 117.673 64.1705 117.406 64.3153C117.141 64.4574 116.933 64.6548 116.779 64.9077C116.626 65.1605 116.549 65.4489 116.549 65.7727V70H115.79ZM121.896 70.1491C121.501 70.1491 121.14 70.0724 120.814 69.919C120.487 69.7628 120.227 69.5384 120.034 69.2457C119.841 68.9503 119.744 68.5923 119.744 68.1719C119.744 67.848 119.805 67.5753 119.927 67.3537C120.049 67.1321 120.223 66.9503 120.447 66.8082C120.672 66.6662 120.937 66.554 121.244 66.4716C121.551 66.3892 121.889 66.3253 122.258 66.2798C122.625 66.2344 122.934 66.1946 123.187 66.1605C123.443 66.1264 123.637 66.0724 123.771 65.9986C123.904 65.9247 123.971 65.8054 123.971 65.6406V65.4872C123.971 65.0412 123.838 64.6903 123.571 64.4347C123.306 64.1761 122.926 64.0469 122.429 64.0469C121.957 64.0469 121.572 64.1506 121.274 64.358C120.978 64.5653 120.771 64.8097 120.652 65.0909L119.931 64.831C120.079 64.473 120.284 64.1875 120.545 63.9744C120.806 63.7585 121.099 63.6037 121.423 63.5099C121.747 63.4134 122.075 63.3651 122.407 63.3651C122.657 63.3651 122.917 63.3977 123.187 63.4631C123.46 63.5284 123.713 63.642 123.946 63.804C124.179 63.9631 124.368 64.1861 124.512 64.473C124.657 64.7571 124.73 65.1179 124.73 65.5554V70H123.971V68.9645H123.924C123.833 69.1577 123.699 69.3452 123.52 69.527C123.341 69.7088 123.116 69.858 122.846 69.9744C122.576 70.0909 122.26 70.1491 121.896 70.1491ZM121.998 69.4545C122.402 69.4545 122.751 69.3651 123.047 69.1861C123.342 69.0071 123.569 68.7699 123.728 68.4744C123.89 68.1761 123.971 67.848 123.971 67.4901V66.544C123.914 66.598 123.819 66.6463 123.686 66.6889C123.555 66.7315 123.403 66.7699 123.23 66.804C123.059 66.8352 122.889 66.8622 122.718 66.8849C122.548 66.9077 122.395 66.9276 122.258 66.9446C121.889 66.9901 121.574 67.0611 121.312 67.1577C121.051 67.2543 120.85 67.3878 120.711 67.5582C120.572 67.7259 120.502 67.9418 120.502 68.206C120.502 68.6037 120.645 68.9119 120.929 69.1307C121.213 69.3466 121.569 69.4545 121.998 69.4545ZM129.326 63.4545V64.1151H126.202V63.4545H129.326ZM127.178 61.8864H127.941V68.2912C127.941 68.5639 127.988 68.7784 128.081 68.9347C128.175 69.0881 128.297 69.1974 128.448 69.2628C128.598 69.3253 128.759 69.3565 128.929 69.3565C129.029 69.3565 129.114 69.3509 129.185 69.3395C129.256 69.3253 129.319 69.3111 129.373 69.2969L129.534 69.983C129.461 70.0114 129.37 70.0369 129.262 70.0597C129.154 70.0852 129.02 70.098 128.861 70.098C128.583 70.098 128.314 70.0369 128.056 69.9148C127.8 69.7926 127.59 69.6108 127.425 69.3693C127.26 69.1278 127.178 68.8281 127.178 68.4702V61.8864ZM133.624 70.1364C133.013 70.1364 132.485 69.9943 132.039 69.7102C131.593 69.4233 131.248 69.027 131.004 68.5213C130.762 68.0128 130.641 67.4276 130.641 66.7656C130.641 66.1065 130.762 65.5213 131.004 65.0099C131.248 64.4957 131.585 64.0937 132.013 63.804C132.445 63.5114 132.944 63.3651 133.509 63.3651C133.864 63.3651 134.207 63.4304 134.536 63.5611C134.866 63.6889 135.161 63.8864 135.423 64.1534C135.687 64.4176 135.896 64.7514 136.049 65.1548C136.202 65.5554 136.279 66.0298 136.279 66.5781V66.9531H131.165V66.2841H135.504C135.504 65.8636 135.418 65.4858 135.248 65.1506C135.08 64.8125 134.846 64.5455 134.545 64.3494C134.246 64.1534 133.901 64.0554 133.509 64.0554C133.094 64.0554 132.729 64.1662 132.414 64.3878C132.099 64.6094 131.852 64.902 131.673 65.2656C131.496 65.6293 131.407 66.027 131.404 66.4588V66.8594C131.404 67.3793 131.494 67.8338 131.673 68.223C131.854 68.6094 132.112 68.9091 132.444 69.1222C132.776 69.3352 133.17 69.4418 133.624 69.4418C133.934 69.4418 134.205 69.3935 134.438 69.2969C134.674 69.2003 134.871 69.071 135.031 68.9091C135.192 68.7443 135.315 68.5639 135.397 68.3679L136.117 68.6023C136.018 68.8778 135.854 69.1321 135.627 69.3651C135.403 69.598 135.121 69.7855 134.783 69.9276C134.448 70.0668 134.062 70.1364 133.624 70.1364ZM140.665 61.2727H141.586L144.172 65.4148H144.249L146.836 61.2727H147.756L144.607 66.2202V70H143.814V66.2202L140.665 61.2727ZM150.713 70.1364C150.148 70.1364 149.648 69.9929 149.213 69.706C148.782 69.419 148.444 69.0227 148.199 68.517C147.955 68.0085 147.833 67.4219 147.833 66.7571C147.833 66.0866 147.955 65.4972 148.199 64.9886C148.444 64.4773 148.782 64.0795 149.213 63.7955C149.648 63.5085 150.148 63.3651 150.713 63.3651C151.279 63.3651 151.777 63.5085 152.209 63.7955C152.641 64.0824 152.979 64.4801 153.223 64.9886C153.471 65.4972 153.594 66.0866 153.594 66.7571C153.594 67.4219 153.472 68.0085 153.228 68.517C152.983 69.0227 152.644 69.419 152.209 69.706C151.777 69.9929 151.279 70.1364 150.713 70.1364ZM150.713 69.4418C151.168 69.4418 151.553 69.3196 151.868 69.0753C152.184 68.831 152.422 68.5057 152.584 68.0994C152.749 67.6932 152.831 67.2457 152.831 66.7571C152.831 66.2685 152.749 65.8196 152.584 65.4105C152.422 65.0014 152.184 64.6733 151.868 64.4261C151.553 64.179 151.168 64.0554 150.713 64.0554C150.262 64.0554 149.877 64.179 149.559 64.4261C149.243 64.6733 149.003 65.0014 148.838 65.4105C148.676 65.8196 148.596 66.2685 148.596 66.7571C148.596 67.2457 148.676 67.6932 148.838 68.0994C149.003 68.5057 149.243 68.831 149.559 69.0753C149.874 69.3196 150.259 69.4418 150.713 69.4418ZM159.418 67.4986V63.4545H160.177V70H159.418V68.9134H159.359C159.205 69.2486 158.962 69.5284 158.63 69.7528C158.298 69.9744 157.891 70.0852 157.411 70.0852C156.994 70.0852 156.623 69.9943 156.299 69.8125C155.975 69.6278 155.721 69.358 155.536 69.0028C155.352 68.6477 155.259 68.2116 155.259 67.6946V63.4545H156.018V67.6477C156.018 68.1591 156.168 68.571 156.469 68.8835C156.771 69.1932 157.157 69.348 157.629 69.348C157.924 69.348 158.208 69.277 158.481 69.1349C158.754 68.9929 158.978 68.7855 159.154 68.5128C159.33 68.2372 159.418 67.8991 159.418 67.4986ZM162.185 70V63.4545H162.922V64.4602H162.978C163.108 64.1307 163.336 63.8651 163.659 63.6634C163.986 63.4588 164.355 63.3565 164.767 63.3565C164.83 63.3565 164.9 63.358 164.976 63.3608C165.053 63.3636 165.117 63.3665 165.168 63.3693V64.1406C165.134 64.1349 165.074 64.1264 164.989 64.1151C164.904 64.1037 164.811 64.098 164.712 64.098C164.371 64.098 164.067 64.1705 163.8 64.3153C163.536 64.4574 163.327 64.6548 163.174 64.9077C163.02 65.1605 162.944 65.4489 162.944 65.7727V70H162.185ZM174.734 63.4545C174.685 62.9687 174.471 62.5824 174.09 62.2955C173.71 62.0085 173.231 61.8651 172.654 61.8651C172.248 61.8651 171.89 61.9347 171.58 62.0739C171.273 62.2131 171.032 62.4062 170.856 62.6534C170.683 62.8977 170.596 63.1761 170.596 63.4886C170.596 63.7188 170.646 63.9205 170.745 64.0938C170.844 64.267 170.978 64.4162 171.146 64.5412C171.316 64.6634 171.504 64.7685 171.708 64.8565C171.915 64.9446 172.124 65.0185 172.335 65.0781L173.255 65.3423C173.533 65.419 173.812 65.517 174.09 65.6364C174.369 65.7557 174.623 65.9062 174.853 66.0881C175.086 66.267 175.272 66.4872 175.411 66.7486C175.553 67.0071 175.624 67.3182 175.624 67.6818C175.624 68.1477 175.504 68.5668 175.262 68.9389C175.021 69.3111 174.674 69.6065 174.222 69.8253C173.771 70.0412 173.229 70.1491 172.599 70.1491C172.005 70.1491 171.489 70.0511 171.052 69.8551C170.614 69.6562 170.271 69.3821 170.021 69.0327C169.771 68.6832 169.63 68.2784 169.599 67.8182H170.417C170.445 68.1619 170.559 68.4531 170.758 68.6918C170.957 68.9304 171.215 69.1122 171.533 69.2372C171.852 69.3594 172.207 69.4205 172.599 69.4205C173.033 69.4205 173.42 69.348 173.758 69.2031C174.099 69.0554 174.366 68.8509 174.559 68.5895C174.755 68.3253 174.853 68.0185 174.853 67.669C174.853 67.3736 174.776 67.1264 174.623 66.9276C174.469 66.7259 174.255 66.5568 173.979 66.4205C173.707 66.2841 173.39 66.1634 173.029 66.0582L171.985 65.7514C171.3 65.5469 170.769 65.2642 170.391 64.9034C170.013 64.5426 169.825 64.0824 169.825 63.5227C169.825 63.054 169.95 62.642 170.2 62.2869C170.452 61.929 170.793 61.6506 171.222 61.4517C171.654 61.25 172.138 61.1491 172.675 61.1491C173.218 61.1491 173.698 61.2486 174.116 61.4474C174.533 61.6463 174.864 61.9205 175.109 62.2699C175.356 62.6165 175.488 63.0114 175.505 63.4545H174.734ZM179.962 63.4545V64.1151H176.839V63.4545H179.962ZM177.815 61.8864H178.577V68.2912C178.577 68.5639 178.624 68.7784 178.718 68.9347C178.812 69.0881 178.934 69.1974 179.085 69.2628C179.235 69.3253 179.396 69.3565 179.566 69.3565C179.665 69.3565 179.751 69.3509 179.822 69.3395C179.893 69.3253 179.955 69.3111 180.009 69.2969L180.171 69.983C180.097 70.0114 180.006 70.0369 179.898 70.0597C179.79 70.0852 179.657 70.098 179.498 70.098C179.219 70.098 178.951 70.0369 178.692 69.9148C178.437 69.7926 178.227 69.6108 178.062 69.3693C177.897 69.1278 177.815 68.8281 177.815 68.4702V61.8864ZM184.261 70.1364C183.65 70.1364 183.122 69.9943 182.676 69.7102C182.23 69.4233 181.885 69.027 181.64 68.5213C181.399 68.0128 181.278 67.4276 181.278 66.7656C181.278 66.1065 181.399 65.5213 181.64 65.0099C181.885 64.4957 182.221 64.0937 182.65 63.804C183.082 63.5114 183.581 63.3651 184.146 63.3651C184.501 63.3651 184.843 63.4304 185.173 63.5611C185.502 63.6889 185.798 63.8864 186.059 64.1534C186.324 64.4176 186.532 64.7514 186.686 65.1548C186.839 65.5554 186.916 66.0298 186.916 66.5781V66.9531H181.802V66.2841H186.14C186.14 65.8636 186.055 65.4858 185.885 65.1506C185.717 64.8125 185.483 64.5455 185.181 64.3494C184.883 64.1534 184.538 64.0554 184.146 64.0554C183.731 64.0554 183.366 64.1662 183.051 64.3878C182.735 64.6094 182.488 64.902 182.309 65.2656C182.133 65.6293 182.044 66.027 182.041 66.4588V66.8594C182.041 67.3793 182.13 67.8338 182.309 68.223C182.491 68.6094 182.748 68.9091 183.081 69.1222C183.413 69.3352 183.806 69.4418 184.261 69.4418C184.571 69.4418 184.842 69.3935 185.075 69.2969C185.311 69.2003 185.508 69.071 185.667 68.9091C185.829 68.7443 185.951 68.5639 186.034 68.3679L186.754 68.6023C186.654 68.8778 186.491 69.1321 186.264 69.3651C186.039 69.598 185.758 69.7855 185.42 69.9276C185.085 70.0668 184.699 70.1364 184.261 70.1364ZM190.415 70.1491C190.021 70.1491 189.66 70.0724 189.333 69.919C189.006 69.7628 188.746 69.5384 188.553 69.2457C188.36 68.9503 188.263 68.5923 188.263 68.1719C188.263 67.848 188.325 67.5753 188.447 67.3537C188.569 67.1321 188.742 66.9503 188.967 66.8082C189.191 66.6662 189.457 66.554 189.763 66.4716C190.07 66.3892 190.408 66.3253 190.778 66.2798C191.144 66.2344 191.454 66.1946 191.707 66.1605C191.962 66.1264 192.157 66.0724 192.29 65.9986C192.424 65.9247 192.491 65.8054 192.491 65.6406V65.4872C192.491 65.0412 192.357 64.6903 192.09 64.4347C191.826 64.1761 191.445 64.0469 190.948 64.0469C190.477 64.0469 190.092 64.1506 189.793 64.358C189.498 64.5653 189.29 64.8097 189.171 65.0909L188.451 64.831C188.599 64.473 188.803 64.1875 189.065 63.9744C189.326 63.7585 189.619 63.6037 189.942 63.5099C190.266 63.4134 190.594 63.3651 190.927 63.3651C191.177 63.3651 191.437 63.3977 191.707 63.4631C191.979 63.5284 192.232 63.642 192.465 63.804C192.698 63.9631 192.887 64.1861 193.032 64.473C193.177 64.7571 193.249 65.1179 193.249 65.5554V70H192.491V68.9645H192.444C192.353 69.1577 192.218 69.3452 192.039 69.527C191.86 69.7088 191.636 69.858 191.366 69.9744C191.096 70.0909 190.779 70.1491 190.415 70.1491ZM190.518 69.4545C190.921 69.4545 191.271 69.3651 191.566 69.1861C191.862 69.0071 192.089 68.7699 192.248 68.4744C192.41 68.1761 192.491 67.848 192.491 67.4901V66.544C192.434 66.598 192.339 66.6463 192.205 66.6889C192.075 66.7315 191.923 66.7699 191.749 66.804C191.579 66.8352 191.408 66.8622 191.238 66.8849C191.067 66.9077 190.914 66.9276 190.778 66.9446C190.408 66.9901 190.093 67.0611 189.832 67.1577C189.57 67.2543 189.37 67.3878 189.231 67.5582C189.092 67.7259 189.022 67.9418 189.022 68.206C189.022 68.6037 189.164 68.9119 189.448 69.1307C189.732 69.3466 190.089 69.4545 190.518 69.4545ZM195.267 70V63.4545H196.004V64.4602H196.072C196.203 64.1222 196.42 63.8565 196.724 63.6634C197.031 63.4673 197.399 63.3693 197.828 63.3693C198.28 63.3693 198.651 63.4759 198.94 63.6889C199.233 63.8991 199.452 64.1889 199.597 64.5582H199.652C199.8 64.1946 200.04 63.9062 200.372 63.6932C200.707 63.4773 201.114 63.3693 201.591 63.3693C202.199 63.3693 202.679 63.5611 203.031 63.9446C203.384 64.3253 203.56 64.8821 203.56 65.6151V70H202.801V65.6151C202.801 65.098 202.669 64.7102 202.405 64.4517C202.141 64.1932 201.793 64.0639 201.361 64.0639C200.861 64.0639 200.476 64.2173 200.206 64.5241C199.936 64.831 199.801 65.2202 199.801 65.6918V70H199.026V65.5469C199.026 65.1037 198.902 64.7457 198.655 64.473C198.408 64.2003 198.06 64.0639 197.611 64.0639C197.31 64.0639 197.038 64.1378 196.797 64.2855C196.558 64.4332 196.369 64.6392 196.23 64.9034C196.094 65.1648 196.026 65.4659 196.026 65.8068V70H195.267ZM209.1 70V61.2727H211.917C212.537 61.2727 213.054 61.392 213.468 61.6307C213.886 61.8665 214.2 62.1875 214.41 62.5938C214.623 63 214.73 63.4574 214.73 63.9659C214.73 64.4744 214.625 64.9332 214.414 65.3423C214.204 65.7486 213.892 66.071 213.477 66.3097C213.062 66.5455 212.547 66.6634 211.93 66.6634H209.714V65.9474H211.909C212.366 65.9474 212.745 65.8622 213.047 65.6918C213.348 65.5185 213.572 65.2827 213.72 64.9844C213.87 64.6861 213.946 64.3466 213.946 63.9659C213.946 63.5852 213.87 63.2457 213.72 62.9474C213.572 62.6491 213.346 62.4148 213.042 62.2443C212.741 62.0739 212.359 61.9886 211.896 61.9886H209.897V70H209.1ZM216.443 70V63.4545H217.18V64.4602H217.235C217.366 64.1307 217.593 63.8651 217.917 63.6634C218.244 63.4588 218.613 63.3565 219.025 63.3565C219.088 63.3565 219.157 63.358 219.234 63.3608C219.311 63.3636 219.375 63.3665 219.426 63.3693V64.1406C219.392 64.1349 219.332 64.1264 219.247 64.1151C219.162 64.1037 219.069 64.098 218.97 64.098C218.629 64.098 218.325 64.1705 218.058 64.3153C217.794 64.4574 217.585 64.6548 217.431 64.9077C217.278 65.1605 217.201 65.4489 217.201 65.7727V70H216.443ZM223.065 70.1364C222.5 70.1364 222 69.9929 221.565 69.706C221.133 69.419 220.795 69.0227 220.551 68.517C220.306 68.0085 220.184 67.4219 220.184 66.7571C220.184 66.0866 220.306 65.4972 220.551 64.9886C220.795 64.4773 221.133 64.0795 221.565 63.7955C222 63.5085 222.5 63.3651 223.065 63.3651C223.63 63.3651 224.129 63.5085 224.561 63.7955C224.993 64.0824 225.331 64.4801 225.575 64.9886C225.822 65.4972 225.946 66.0866 225.946 66.7571C225.946 67.4219 225.824 68.0085 225.579 68.517C225.335 69.0227 224.995 69.419 224.561 69.706C224.129 69.9929 223.63 70.1364 223.065 70.1364ZM223.065 69.4418C223.52 69.4418 223.904 69.3196 224.22 69.0753C224.535 68.831 224.774 68.5057 224.936 68.0994C225.1 67.6932 225.183 67.2457 225.183 66.7571C225.183 66.2685 225.1 65.8196 224.936 65.4105C224.774 65.0014 224.535 64.6733 224.22 64.4261C223.904 64.179 223.52 64.0554 223.065 64.0554C222.613 64.0554 222.228 64.179 221.91 64.4261C221.595 64.6733 221.355 65.0014 221.19 65.4105C221.028 65.8196 220.947 66.2685 220.947 66.7571C220.947 67.2457 221.028 67.6932 221.19 68.0994C221.355 68.5057 221.595 68.831 221.91 69.0753C222.225 69.3196 222.61 69.4418 223.065 69.4418ZM230.304 63.4545V64.1151H227.087V63.4545H230.304ZM228.092 70V62.4957C228.092 62.1435 228.173 61.8466 228.335 61.6051C228.5 61.3636 228.714 61.1804 228.979 61.0554C229.243 60.9304 229.523 60.8679 229.818 60.8679C230.017 60.8679 230.182 60.8849 230.312 60.919C230.446 60.9503 230.551 60.9815 230.628 61.0128L230.406 61.6776C230.349 61.6605 230.28 61.6406 230.197 61.6179C230.115 61.5952 230.011 61.5838 229.886 61.5838C229.557 61.5838 229.303 61.6761 229.124 61.8608C228.945 62.0455 228.855 62.3097 228.855 62.6534L228.851 70H228.092ZM231.826 70V63.4545H232.589V70H231.826ZM232.214 62.3295C232.058 62.3295 231.924 62.277 231.814 62.1719C231.703 62.0639 231.647 61.9347 231.647 61.7841C231.647 61.6335 231.703 61.5057 231.814 61.4006C231.924 61.2926 232.058 61.2386 232.214 61.2386C232.37 61.2386 232.504 61.2926 232.615 61.4006C232.725 61.5057 232.781 61.6335 232.781 61.7841C232.781 61.9347 232.725 62.0639 232.615 62.1719C232.504 62.277 232.37 62.3295 232.214 62.3295ZM235.354 61.2727V70H234.595V61.2727H235.354ZM240.007 70.1364C239.396 70.1364 238.868 69.9943 238.422 69.7102C237.976 69.4233 237.631 69.027 237.386 68.5213C237.145 68.0128 237.024 67.4276 237.024 66.7656C237.024 66.1065 237.145 65.5213 237.386 65.0099C237.631 64.4957 237.967 64.0937 238.396 63.804C238.828 63.5114 239.327 63.3651 239.892 63.3651C240.247 63.3651 240.589 63.4304 240.919 63.5611C241.249 63.6889 241.544 63.8864 241.805 64.1534C242.07 64.4176 242.278 64.7514 242.432 65.1548C242.585 65.5554 242.662 66.0298 242.662 66.5781V66.9531H237.548V66.2841H241.886C241.886 65.8636 241.801 65.4858 241.631 65.1506C241.463 64.8125 241.229 64.5455 240.928 64.3494C240.629 64.1534 240.284 64.0554 239.892 64.0554C239.477 64.0554 239.112 64.1662 238.797 64.3878C238.482 64.6094 238.234 64.902 238.055 65.2656C237.879 65.6293 237.79 66.027 237.787 66.4588V66.8594C237.787 67.3793 237.876 67.8338 238.055 68.223C238.237 68.6094 238.494 68.9091 238.827 69.1222C239.159 69.3352 239.553 69.4418 240.007 69.4418C240.317 69.4418 240.588 69.3935 240.821 69.2969C241.057 69.2003 241.254 69.071 241.413 68.9091C241.575 68.7443 241.697 68.5639 241.78 68.3679L242.5 68.6023C242.401 68.8778 242.237 69.1321 242.01 69.3651C241.786 69.598 241.504 69.7855 241.166 69.9276C240.831 70.0668 240.445 70.1364 240.007 70.1364ZM251.135 67.2727H252.021L253.137 68.7514L253.325 68.9986L254.697 70.8182H253.811L252.805 69.4759L252.626 69.2372L251.135 67.2727ZM255.021 65.6364C255.021 66.5455 254.859 67.3366 254.535 68.0099C254.211 68.6804 253.765 69.2003 253.197 69.5696C252.632 69.9361 251.981 70.1193 251.245 70.1193C250.51 70.1193 249.858 69.9361 249.289 69.5696C248.724 69.2003 248.279 68.6804 247.956 68.0099C247.635 67.3366 247.474 66.5455 247.474 65.6364C247.474 64.7273 247.635 63.9375 247.956 63.267C248.279 62.5937 248.725 62.0739 249.294 61.7074C249.862 61.3381 250.512 61.1534 251.245 61.1534C251.981 61.1534 252.632 61.3381 253.197 61.7074C253.765 62.0739 254.211 62.5937 254.535 63.267C254.859 63.9375 255.021 64.7273 255.021 65.6364ZM254.245 65.6364C254.245 64.8551 254.115 64.1861 253.853 63.6293C253.592 63.0696 253.235 62.642 252.784 62.3466C252.332 62.0511 251.819 61.9034 251.245 61.9034C250.674 61.9034 250.163 62.0511 249.711 62.3466C249.26 62.642 248.902 63.0682 248.637 63.625C248.376 64.1818 248.245 64.8523 248.245 65.6364C248.245 66.4176 248.376 67.0866 248.637 67.6435C248.899 68.2003 249.255 68.6278 249.707 68.9261C250.159 69.2216 250.672 69.3693 251.245 69.3693C251.819 69.3693 252.332 69.2216 252.784 68.9261C253.238 68.6307 253.596 68.2045 253.858 67.6477C254.119 67.0881 254.248 66.4176 254.245 65.6364ZM260.95 67.4986V63.4545H261.708V70H260.95V68.9134H260.89C260.737 69.2486 260.494 69.5284 260.161 69.7528C259.829 69.9744 259.423 70.0852 258.942 70.0852C258.525 70.0852 258.154 69.9943 257.83 69.8125C257.506 69.6278 257.252 69.358 257.067 69.0028C256.883 68.6477 256.79 68.2116 256.79 67.6946V63.4545H257.549V67.6477C257.549 68.1591 257.7 68.571 258.001 68.8835C258.302 69.1932 258.688 69.348 259.16 69.348C259.455 69.348 259.739 69.277 260.012 69.1349C260.285 68.9929 260.509 68.7855 260.685 68.5128C260.862 68.2372 260.95 67.8991 260.95 67.4986ZM263.725 70V63.4545H264.488V70H263.725ZM264.113 62.3295C263.956 62.3295 263.823 62.277 263.712 62.1719C263.601 62.0639 263.546 61.9347 263.546 61.7841C263.546 61.6335 263.601 61.5057 263.712 61.4006C263.823 61.2926 263.956 61.2386 264.113 61.2386C264.269 61.2386 264.402 61.2926 264.513 61.4006C264.624 61.5057 264.679 61.6335 264.679 61.7841C264.679 61.9347 264.624 62.0639 264.513 62.1719C264.402 62.277 264.269 62.3295 264.113 62.3295ZM269.05 70.1364C268.465 70.1364 267.955 69.9901 267.521 69.6974C267.089 69.4048 266.754 69.0043 266.515 68.4957C266.276 67.9872 266.157 67.4077 266.157 66.7571C266.157 66.1009 266.278 65.517 266.519 65.0057C266.763 64.4943 267.102 64.0937 267.533 63.804C267.965 63.5114 268.467 63.3651 269.038 63.3651C269.475 63.3651 269.871 63.4503 270.227 63.6207C270.582 63.7884 270.874 64.0256 271.104 64.3324C271.337 64.6364 271.484 64.9915 271.543 65.3977H270.776C270.697 65.0284 270.505 64.7131 270.201 64.4517C269.9 64.1875 269.516 64.0554 269.05 64.0554C268.633 64.0554 268.263 64.169 267.942 64.3963C267.621 64.6207 267.37 64.9347 267.188 65.3381C267.009 65.7386 266.92 66.2031 266.92 66.7315C266.92 67.2628 267.008 67.733 267.184 68.142C267.36 68.5483 267.607 68.8665 267.925 69.0966C268.246 69.3267 268.621 69.4418 269.05 69.4418C269.34 69.4418 269.604 69.3878 269.843 69.2798C270.085 69.169 270.286 69.0128 270.448 68.8111C270.613 68.6094 270.724 68.3693 270.781 68.0909H271.548C271.491 68.4858 271.35 68.8381 271.126 69.1477C270.904 69.4545 270.616 69.696 270.261 69.8722C269.908 70.0483 269.505 70.1364 269.05 70.1364ZM273.864 67.5284L273.855 66.5355H274.026L277.094 63.4545H278.053L275.023 66.4886L274.955 66.5014L273.864 67.5284ZM273.173 70V61.2727H273.932V70H273.173ZM277.251 70L274.592 66.6378L275.138 66.1136L278.223 70H277.251ZM280.237 61.2727V70H279.478V61.2727H280.237ZM282.772 72.4545C282.621 72.4545 282.481 72.4403 282.35 72.4119C282.219 72.3835 282.116 72.3523 282.039 72.3182L282.244 71.6491C282.502 71.7287 282.732 71.7571 282.934 71.7344C283.136 71.7145 283.315 71.6236 283.471 71.4616C283.627 71.3026 283.766 71.0582 283.888 70.7287L284.127 70.0639L281.719 63.4545H282.542L284.485 68.9986H284.545L286.488 63.4545H287.31L284.54 71.0355C284.424 71.3509 284.281 71.6136 284.11 71.8239C283.94 72.0369 283.742 72.1946 283.518 72.2969C283.296 72.402 283.048 72.4545 282.772 72.4545Z" fill="#454343"/>
<path d="M295.329 80L308.344 64.4233H302.941L309.026 56H299.857L295 69.0055H299.711L295.329 80Z" fill="#EAC814"/>
<defs>
<linearGradient id="paint0_linear_2_14" x1="5" y1="46.1364" x2="280" y2="46.1364" gradientUnits="userSpaceOnUse">
<stop stop-color="#6FCE4E"/>
<stop offset="0.9999" stop-color="#3CB0D5" stop-opacity="0.75"/>
<stop offset="1" stop-color="#7DA33F" stop-opacity="0"/>
</linearGradient>
</defs>
</svg>
